<mxfile host="Electron" agent="Mozilla/5.0 (X11; Linux x86_64) AppleWebKit/537.36 (KHTML, like Gecko) draw.io/24.7.17 Chrome/128.0.6613.36 Electron/32.0.1 Safari/537.36" version="24.7.17">
  <diagram name="Page-1" id="6yTMvC79K4VLLoUOv5wM">
    <mxGraphModel dx="14060" dy="6220" grid="1" gridSize="10" guides="1" tooltips="1" connect="1" arrows="1" fold="1" page="1" pageScale="1" pageWidth="850" pageHeight="1100" math="0" shadow="0">
      <root>
        <mxCell id="0" />
        <mxCell id="1" parent="0" />
        <mxCell id="o0Rq0M7x-yJcH_XowzdA-1" value="&lt;font style=&quot;font-size: 24px;&quot;&gt;start&lt;/font&gt;" style="ellipse;whiteSpace=wrap;html=1;fillColor=#000099;strokeColor=#FF0000;" parent="1" vertex="1">
          <mxGeometry x="360" y="20" width="120" height="80" as="geometry" />
        </mxCell>
        <mxCell id="B7nKy264djmHCqe6Lyla-1" value="" style="endArrow=classic;html=1;rounded=0;fillColor=#000099;strokeColor=#FF0000;" parent="1" edge="1">
          <mxGeometry width="50" height="50" relative="1" as="geometry">
            <mxPoint x="419.5" y="100" as="sourcePoint" />
            <mxPoint x="420" y="150" as="targetPoint" />
          </mxGeometry>
        </mxCell>
        <mxCell id="B7nKy264djmHCqe6Lyla-15" value="" style="endArrow=classic;html=1;rounded=0;fillColor=#000099;strokeColor=#FF0000;" parent="1" edge="1">
          <mxGeometry width="50" height="50" relative="1" as="geometry">
            <mxPoint x="280" y="200" as="sourcePoint" />
            <mxPoint x="280" y="260" as="targetPoint" />
          </mxGeometry>
        </mxCell>
        <mxCell id="B7nKy264djmHCqe6Lyla-16" value="" style="endArrow=classic;html=1;rounded=0;fillColor=#000099;strokeColor=#FF0000;" parent="1" edge="1">
          <mxGeometry width="50" height="50" relative="1" as="geometry">
            <mxPoint x="559.58" y="200" as="sourcePoint" />
            <mxPoint x="559.58" y="260" as="targetPoint" />
          </mxGeometry>
        </mxCell>
        <mxCell id="B7nKy264djmHCqe6Lyla-17" value="" style="endArrow=classic;html=1;rounded=0;fillColor=#000099;strokeColor=#FF0000;" parent="1" edge="1">
          <mxGeometry width="50" height="50" relative="1" as="geometry">
            <mxPoint x="420.58" y="370" as="sourcePoint" />
            <mxPoint x="420.58" y="430" as="targetPoint" />
          </mxGeometry>
        </mxCell>
        <mxCell id="B7nKy264djmHCqe6Lyla-18" value="" style="endArrow=classic;html=1;rounded=0;fillColor=#000099;strokeColor=#FF0000;" parent="1" edge="1">
          <mxGeometry width="50" height="50" relative="1" as="geometry">
            <mxPoint x="420.58" y="490" as="sourcePoint" />
            <mxPoint x="420.58" y="550" as="targetPoint" />
          </mxGeometry>
        </mxCell>
        <mxCell id="B7nKy264djmHCqe6Lyla-19" value="" style="endArrow=classic;html=1;rounded=0;fillColor=#000099;strokeColor=#FF0000;" parent="1" edge="1">
          <mxGeometry width="50" height="50" relative="1" as="geometry">
            <mxPoint x="-40" y="560" as="sourcePoint" />
            <mxPoint x="-40" y="620" as="targetPoint" />
          </mxGeometry>
        </mxCell>
        <mxCell id="B7nKy264djmHCqe6Lyla-21" value="have account?" style="rhombus;whiteSpace=wrap;html=1;points=[[0,0,0,0,0],[0,0.43,0,-3,0],[0,1,0,0,0],[0.15,0.58,0,0,0],[0.5,0,0,0,0],[0.5,1,0,0,0],[0.56,0.01,0,0,0],[1,0,0,0,0],[1,0.43,0,3,0],[1,1,0,0,0]];fillColor=#000099;strokeColor=#FF0000;" parent="1" vertex="1">
          <mxGeometry x="371" y="150" width="100" height="100" as="geometry" />
        </mxCell>
        <mxCell id="B7nKy264djmHCqe6Lyla-26" value="Yes" style="endArrow=none;html=1;rounded=0;fillColor=#000099;strokeColor=#FF0000;" parent="1" edge="1">
          <mxGeometry width="50" height="50" relative="1" as="geometry">
            <mxPoint x="470" y="200" as="sourcePoint" />
            <mxPoint x="560" y="200" as="targetPoint" />
          </mxGeometry>
        </mxCell>
        <mxCell id="B7nKy264djmHCqe6Lyla-29" value="No" style="endArrow=none;html=1;rounded=0;fillColor=#000099;strokeColor=#FF0000;" parent="1" edge="1">
          <mxGeometry width="50" height="50" relative="1" as="geometry">
            <mxPoint x="280" y="199.58" as="sourcePoint" />
            <mxPoint x="370" y="199.58" as="targetPoint" />
          </mxGeometry>
        </mxCell>
        <mxCell id="B7nKy264djmHCqe6Lyla-30" value="SignUp" style="rounded=0;whiteSpace=wrap;html=1;fillColor=#000099;strokeColor=#FF0000;" parent="1" vertex="1">
          <mxGeometry x="220" y="260" width="120" height="40" as="geometry" />
        </mxCell>
        <mxCell id="B7nKy264djmHCqe6Lyla-31" value="LogIn" style="rounded=0;whiteSpace=wrap;html=1;fillColor=#000099;strokeColor=#FF0000;" parent="1" vertex="1">
          <mxGeometry x="500" y="260" width="120" height="40" as="geometry" />
        </mxCell>
        <mxCell id="B7nKy264djmHCqe6Lyla-32" value="" style="endArrow=none;html=1;rounded=0;fillColor=#000099;strokeColor=#FF0000;" parent="1" edge="1">
          <mxGeometry width="50" height="50" relative="1" as="geometry">
            <mxPoint x="279.58" y="360" as="sourcePoint" />
            <mxPoint x="279.58" y="300" as="targetPoint" />
          </mxGeometry>
        </mxCell>
        <mxCell id="B7nKy264djmHCqe6Lyla-34" value="" style="endArrow=none;html=1;rounded=0;fillColor=#000099;strokeColor=#FF0000;" parent="1" edge="1">
          <mxGeometry width="50" height="50" relative="1" as="geometry">
            <mxPoint x="559.5799999999999" y="360" as="sourcePoint" />
            <mxPoint x="559.5799999999999" y="300" as="targetPoint" />
          </mxGeometry>
        </mxCell>
        <mxCell id="B7nKy264djmHCqe6Lyla-35" value="" style="endArrow=none;html=1;rounded=0;fillColor=#000099;strokeColor=#FF0000;" parent="1" edge="1">
          <mxGeometry width="50" height="50" relative="1" as="geometry">
            <mxPoint x="280" y="360" as="sourcePoint" />
            <mxPoint x="410" y="360" as="targetPoint" />
          </mxGeometry>
        </mxCell>
        <mxCell id="B7nKy264djmHCqe6Lyla-36" value="" style="endArrow=none;html=1;rounded=0;fillColor=#000099;strokeColor=#FF0000;" parent="1" edge="1">
          <mxGeometry width="50" height="50" relative="1" as="geometry">
            <mxPoint x="430" y="360" as="sourcePoint" />
            <mxPoint x="560" y="360" as="targetPoint" />
          </mxGeometry>
        </mxCell>
        <mxCell id="B7nKy264djmHCqe6Lyla-37" value="" style="ellipse;whiteSpace=wrap;html=1;aspect=fixed;fillColor=#000099;strokeColor=#FF0000;" parent="1" vertex="1">
          <mxGeometry x="410" y="350" width="20" height="20" as="geometry" />
        </mxCell>
        <mxCell id="B7nKy264djmHCqe6Lyla-38" value="home page" style="rounded=0;whiteSpace=wrap;html=1;fillColor=#000099;strokeColor=#FF0000;" parent="1" vertex="1">
          <mxGeometry x="365" y="430" width="120" height="60" as="geometry" />
        </mxCell>
        <mxCell id="B7nKy264djmHCqe6Lyla-39" value="" style="ellipse;whiteSpace=wrap;html=1;aspect=fixed;fillColor=#000099;strokeColor=#FF0000;" parent="1" vertex="1">
          <mxGeometry x="410" y="550" width="20" height="20" as="geometry" />
        </mxCell>
        <mxCell id="B7nKy264djmHCqe6Lyla-40" value="" style="endArrow=none;html=1;rounded=0;fillColor=#000099;strokeColor=#FF0000;" parent="1" edge="1">
          <mxGeometry width="50" height="50" relative="1" as="geometry">
            <mxPoint x="-795" y="560" as="sourcePoint" />
            <mxPoint x="410" y="559.58" as="targetPoint" />
          </mxGeometry>
        </mxCell>
        <mxCell id="B7nKy264djmHCqe6Lyla-42" value="" style="endArrow=classic;html=1;rounded=0;fillColor=#000099;strokeColor=#FF0000;" parent="1" edge="1">
          <mxGeometry width="50" height="50" relative="1" as="geometry">
            <mxPoint x="1739.29" y="870" as="sourcePoint" />
            <mxPoint x="1739.29" y="930" as="targetPoint" />
          </mxGeometry>
        </mxCell>
        <mxCell id="B7nKy264djmHCqe6Lyla-52" value="" style="endArrow=classic;html=1;rounded=0;fillColor=#000099;strokeColor=#FF0000;" parent="1" edge="1">
          <mxGeometry width="50" height="50" relative="1" as="geometry">
            <mxPoint x="1740" y="750" as="sourcePoint" />
            <mxPoint x="1740" y="810" as="targetPoint" />
          </mxGeometry>
        </mxCell>
        <mxCell id="B7nKy264djmHCqe6Lyla-53" value="" style="endArrow=classic;html=1;rounded=0;fillColor=#000099;strokeColor=#FF0000;" parent="1" edge="1">
          <mxGeometry width="50" height="50" relative="1" as="geometry">
            <mxPoint x="1540" y="750" as="sourcePoint" />
            <mxPoint x="1540" y="810" as="targetPoint" />
          </mxGeometry>
        </mxCell>
        <mxCell id="B7nKy264djmHCqe6Lyla-54" value="" style="endArrow=classic;html=1;rounded=0;fillColor=#000099;strokeColor=#FF0000;" parent="1" edge="1">
          <mxGeometry width="50" height="50" relative="1" as="geometry">
            <mxPoint x="1640" y="680" as="sourcePoint" />
            <mxPoint x="1640" y="740" as="targetPoint" />
          </mxGeometry>
        </mxCell>
        <mxCell id="B7nKy264djmHCqe6Lyla-55" value="" style="endArrow=classic;html=1;rounded=0;fillColor=#000099;strokeColor=#FF0000;" parent="1" edge="1">
          <mxGeometry width="50" height="50" relative="1" as="geometry">
            <mxPoint x="279.58000000000004" y="560" as="sourcePoint" />
            <mxPoint x="279.58000000000004" y="620" as="targetPoint" />
          </mxGeometry>
        </mxCell>
        <mxCell id="B7nKy264djmHCqe6Lyla-58" value="show folders" style="rounded=0;whiteSpace=wrap;html=1;fillColor=#000099;strokeColor=#FF0000;" parent="1" vertex="1">
          <mxGeometry x="220" y="620" width="120" height="60" as="geometry" />
        </mxCell>
        <mxCell id="B7nKy264djmHCqe6Lyla-59" value="inter folder" style="rounded=0;whiteSpace=wrap;html=1;fillColor=#000099;strokeColor=#FF0000;" parent="1" vertex="1">
          <mxGeometry x="580" y="620" width="120" height="60" as="geometry" />
        </mxCell>
        <mxCell id="B7nKy264djmHCqe6Lyla-64" value="" style="endArrow=none;html=1;rounded=0;exitX=1;exitY=0.5;exitDx=0;exitDy=0;fillColor=#000099;strokeColor=#FF0000;" parent="1" source="B7nKy264djmHCqe6Lyla-39" edge="1">
          <mxGeometry width="50" height="50" relative="1" as="geometry">
            <mxPoint x="440" y="559.92" as="sourcePoint" />
            <mxPoint x="1640" y="560" as="targetPoint" />
          </mxGeometry>
        </mxCell>
        <mxCell id="B7nKy264djmHCqe6Lyla-65" value="" style="endArrow=classic;html=1;rounded=0;fillColor=#000099;strokeColor=#FF0000;" parent="1" edge="1">
          <mxGeometry width="50" height="50" relative="1" as="geometry">
            <mxPoint x="639.29" y="560" as="sourcePoint" />
            <mxPoint x="639.29" y="620" as="targetPoint" />
            <Array as="points">
              <mxPoint x="639.79" y="580" />
              <mxPoint x="639.79" y="600" />
            </Array>
          </mxGeometry>
        </mxCell>
        <mxCell id="B7nKy264djmHCqe6Lyla-68" value="Exam" style="rounded=0;whiteSpace=wrap;html=1;fillColor=#000099;strokeColor=#FF0000;" parent="1" vertex="1">
          <mxGeometry x="-100" y="620" width="120" height="60" as="geometry" />
        </mxCell>
        <mxCell id="B7nKy264djmHCqe6Lyla-71" value="" style="endArrow=classic;html=1;rounded=0;fillColor=#000099;strokeColor=#FF0000;" parent="1" edge="1">
          <mxGeometry width="50" height="50" relative="1" as="geometry">
            <mxPoint x="1639.5" y="560" as="sourcePoint" />
            <mxPoint x="1639.5" y="620" as="targetPoint" />
          </mxGeometry>
        </mxCell>
        <mxCell id="B7nKy264djmHCqe6Lyla-72" value="show my profile" style="rounded=0;whiteSpace=wrap;html=1;fillColor=#000099;strokeColor=#FF0000;" parent="1" vertex="1">
          <mxGeometry x="1580" y="620" width="120" height="60" as="geometry" />
        </mxCell>
        <mxCell id="B7nKy264djmHCqe6Lyla-73" value="" style="endArrow=classic;html=1;rounded=0;fillColor=#000099;strokeColor=#FF0000;" parent="1" edge="1">
          <mxGeometry width="50" height="50" relative="1" as="geometry">
            <mxPoint x="-789.0699999999999" y="560" as="sourcePoint" />
            <mxPoint x="-789.0699999999999" y="620" as="targetPoint" />
          </mxGeometry>
        </mxCell>
        <mxCell id="B7nKy264djmHCqe6Lyla-74" value="download words sound or pdf" style="rounded=0;whiteSpace=wrap;html=1;fillColor=#000099;strokeColor=#FF0000;" parent="1" vertex="1">
          <mxGeometry x="-844" y="620" width="120" height="60" as="geometry" />
        </mxCell>
        <mxCell id="B7nKy264djmHCqe6Lyla-75" value="" style="endArrow=classic;html=1;rounded=0;fillColor=#000099;strokeColor=#FF0000;" parent="1" edge="1">
          <mxGeometry width="50" height="50" relative="1" as="geometry">
            <mxPoint x="1200" y="560" as="sourcePoint" />
            <mxPoint x="1200" y="620" as="targetPoint" />
          </mxGeometry>
        </mxCell>
        <mxCell id="B7nKy264djmHCqe6Lyla-76" value="create folder" style="rounded=0;whiteSpace=wrap;html=1;fillColor=#000099;strokeColor=#FF0000;" parent="1" vertex="1">
          <mxGeometry x="1140" y="620" width="120" height="60" as="geometry" />
        </mxCell>
        <mxCell id="B7nKy264djmHCqe6Lyla-77" value="" style="ellipse;whiteSpace=wrap;html=1;aspect=fixed;fillColor=#000099;strokeColor=#FF0000;" parent="1" vertex="1">
          <mxGeometry x="1630" y="740" width="20" height="20" as="geometry" />
        </mxCell>
        <mxCell id="B7nKy264djmHCqe6Lyla-78" value="" style="endArrow=none;html=1;rounded=0;fillColor=#000099;strokeColor=#FF0000;" parent="1" edge="1">
          <mxGeometry width="50" height="50" relative="1" as="geometry">
            <mxPoint x="1650" y="750" as="sourcePoint" />
            <mxPoint x="1740" y="750" as="targetPoint" />
          </mxGeometry>
        </mxCell>
        <mxCell id="B7nKy264djmHCqe6Lyla-79" value="" style="endArrow=none;html=1;rounded=0;fillColor=#000099;strokeColor=#FF0000;" parent="1" edge="1">
          <mxGeometry width="50" height="50" relative="1" as="geometry">
            <mxPoint x="1540" y="749.29" as="sourcePoint" />
            <mxPoint x="1630" y="749.29" as="targetPoint" />
          </mxGeometry>
        </mxCell>
        <mxCell id="B7nKy264djmHCqe6Lyla-80" value="show my profile" style="rounded=0;whiteSpace=wrap;html=1;fillColor=#000099;strokeColor=#FF0000;" parent="1" vertex="1">
          <mxGeometry x="1480" y="810" width="120" height="60" as="geometry" />
        </mxCell>
        <mxCell id="B7nKy264djmHCqe6Lyla-82" value="eidt profile" style="rounded=0;whiteSpace=wrap;html=1;fillColor=#000099;strokeColor=#FF0000;" parent="1" vertex="1">
          <mxGeometry x="1680" y="810" width="120" height="60" as="geometry" />
        </mxCell>
        <mxCell id="B7nKy264djmHCqe6Lyla-84" value="edit your data and save&amp;nbsp;" style="rounded=0;whiteSpace=wrap;html=1;fillColor=#000099;strokeColor=#FF0000;" parent="1" vertex="1">
          <mxGeometry x="1680" y="930" width="120" height="60" as="geometry" />
        </mxCell>
        <mxCell id="B7nKy264djmHCqe6Lyla-85" value="" style="endArrow=classic;html=1;rounded=0;exitX=0.5;exitY=1;exitDx=0;exitDy=0;entryX=0.5;entryY=0;entryDx=0;entryDy=0;fillColor=#000099;strokeColor=#FF0000;" parent="1" source="B7nKy264djmHCqe6Lyla-74" target="B7nKy264djmHCqe6Lyla-107" edge="1">
          <mxGeometry width="50" height="50" relative="1" as="geometry">
            <mxPoint x="-794" y="720" as="sourcePoint" />
            <mxPoint x="-1059" y="800" as="targetPoint" />
            <Array as="points">
              <mxPoint x="-784" y="720" />
              <mxPoint x="-1059" y="720" />
            </Array>
          </mxGeometry>
        </mxCell>
        <mxCell id="B7nKy264djmHCqe6Lyla-91" value="" style="endArrow=classic;html=1;rounded=0;entryX=0.5;entryY=0;entryDx=0;entryDy=0;exitX=1;exitY=0.5;exitDx=0;exitDy=0;fillColor=#000099;strokeColor=#FF0000;" parent="1" source="B7nKy264djmHCqe6Lyla-107" target="B7nKy264djmHCqe6Lyla-92" edge="1">
          <mxGeometry width="50" height="50" relative="1" as="geometry">
            <mxPoint x="-1044" y="814.41" as="sourcePoint" />
            <mxPoint x="-939" y="880" as="targetPoint" />
            <Array as="points">
              <mxPoint x="-899" y="814" />
            </Array>
          </mxGeometry>
        </mxCell>
        <mxCell id="B7nKy264djmHCqe6Lyla-92" value="show word selected" style="rounded=0;whiteSpace=wrap;html=1;fillColor=#000099;strokeColor=#FF0000;" parent="1" vertex="1">
          <mxGeometry x="-959" y="890" width="120" height="50" as="geometry" />
        </mxCell>
        <mxCell id="B7nKy264djmHCqe6Lyla-93" value="" style="endArrow=classic;html=1;rounded=0;exitX=0.474;exitY=0.8;exitDx=0;exitDy=0;exitPerimeter=0;fillColor=#000099;strokeColor=#FF0000;" parent="1" source="B7nKy264djmHCqe6Lyla-107" edge="1">
          <mxGeometry width="50" height="50" relative="1" as="geometry">
            <mxPoint x="-1059.53" y="830" as="sourcePoint" />
            <mxPoint x="-1059.53" y="890" as="targetPoint" />
          </mxGeometry>
        </mxCell>
        <mxCell id="B7nKy264djmHCqe6Lyla-94" value="" style="endArrow=classic;html=1;rounded=0;entryX=0.5;entryY=0;entryDx=0;entryDy=0;fillColor=#000099;strokeColor=#FF0000;" parent="1" target="B7nKy264djmHCqe6Lyla-117" edge="1">
          <mxGeometry width="50" height="50" relative="1" as="geometry">
            <mxPoint x="-1319.83" y="1010" as="sourcePoint" />
            <mxPoint x="-1319.83" y="1070" as="targetPoint" />
          </mxGeometry>
        </mxCell>
        <mxCell id="B7nKy264djmHCqe6Lyla-95" value="" style="endArrow=classic;html=1;rounded=0;fillColor=#000099;strokeColor=#FF0000;" parent="1" edge="1">
          <mxGeometry width="50" height="50" relative="1" as="geometry">
            <mxPoint x="-1219.53" y="940" as="sourcePoint" />
            <mxPoint x="-1219.53" y="1000" as="targetPoint" />
          </mxGeometry>
        </mxCell>
        <mxCell id="B7nKy264djmHCqe6Lyla-96" value="" style="endArrow=classic;html=1;rounded=0;fillColor=#000099;strokeColor=#FF0000;" parent="1" edge="1">
          <mxGeometry width="50" height="50" relative="1" as="geometry">
            <mxPoint x="-1269" y="1180" as="sourcePoint" />
            <mxPoint x="-1269" y="1240" as="targetPoint" />
          </mxGeometry>
        </mxCell>
        <mxCell id="B7nKy264djmHCqe6Lyla-97" value="" style="endArrow=classic;html=1;rounded=0;fillColor=#000099;strokeColor=#FF0000;" parent="1" edge="1">
          <mxGeometry width="50" height="50" relative="1" as="geometry">
            <mxPoint x="-1139" y="1130" as="sourcePoint" />
            <mxPoint x="-1259" y="1170" as="targetPoint" />
            <Array as="points">
              <mxPoint x="-1139" y="1170" />
            </Array>
          </mxGeometry>
        </mxCell>
        <mxCell id="B7nKy264djmHCqe6Lyla-98" value="" style="endArrow=classic;html=1;rounded=0;fillColor=#000099;strokeColor=#FF0000;" parent="1" edge="1">
          <mxGeometry width="50" height="50" relative="1" as="geometry">
            <mxPoint x="-899.59" y="940" as="sourcePoint" />
            <mxPoint x="-899" y="1350" as="targetPoint" />
            <Array as="points">
              <mxPoint x="-900" y="1230" />
            </Array>
          </mxGeometry>
        </mxCell>
        <mxCell id="B7nKy264djmHCqe6Lyla-99" value="" style="endArrow=classic;html=1;rounded=0;fillColor=#000099;strokeColor=#FF0000;" parent="1" edge="1">
          <mxGeometry width="50" height="50" relative="1" as="geometry">
            <mxPoint x="-1100" y="1470" as="sourcePoint" />
            <mxPoint x="-1059" y="750" as="targetPoint" />
            <Array as="points">
              <mxPoint x="-1180" y="1470" />
              <mxPoint x="-1639" y="1470" />
              <mxPoint x="-1639" y="1010" />
              <mxPoint x="-1639" y="750" />
            </Array>
          </mxGeometry>
        </mxCell>
        <mxCell id="B7nKy264djmHCqe6Lyla-130" value="no&lt;div&gt;&lt;br&gt;&lt;/div&gt;" style="edgeLabel;html=1;align=center;verticalAlign=middle;resizable=0;points=[];fillColor=#000099;strokeColor=#FF0000;" parent="B7nKy264djmHCqe6Lyla-99" vertex="1" connectable="0">
          <mxGeometry x="-0.7475" y="-2" relative="1" as="geometry">
            <mxPoint x="1" y="8" as="offset" />
          </mxGeometry>
        </mxCell>
        <mxCell id="B7nKy264djmHCqe6Lyla-100" value="" style="endArrow=classic;html=1;rounded=0;entryX=0;entryY=0.5;entryDx=0;entryDy=0;fillColor=#000099;strokeColor=#FF0000;" parent="1" target="B7nKy264djmHCqe6Lyla-125" edge="1">
          <mxGeometry width="50" height="50" relative="1" as="geometry">
            <mxPoint x="-1269" y="1290" as="sourcePoint" />
            <mxPoint x="-1089" y="1360" as="targetPoint" />
            <Array as="points">
              <mxPoint x="-1269" y="1360" />
            </Array>
          </mxGeometry>
        </mxCell>
        <mxCell id="B7nKy264djmHCqe6Lyla-101" value="" style="endArrow=classic;html=1;rounded=0;entryX=0.5;entryY=0;entryDx=0;entryDy=0;fillColor=#000099;strokeColor=#FF0000;" parent="1" target="B7nKy264djmHCqe6Lyla-125" edge="1">
          <mxGeometry width="50" height="50" relative="1" as="geometry">
            <mxPoint x="-1059.5900000000001" y="940" as="sourcePoint" />
            <mxPoint x="-1060" y="1340" as="targetPoint" />
          </mxGeometry>
        </mxCell>
        <mxCell id="B7nKy264djmHCqe6Lyla-102" value="" style="endArrow=classic;html=1;rounded=0;fillColor=#000099;strokeColor=#FF0000;" parent="1" edge="1">
          <mxGeometry width="50" height="50" relative="1" as="geometry">
            <mxPoint x="-1059.71" y="1370" as="sourcePoint" />
            <mxPoint x="-1059.71" y="1430" as="targetPoint" />
          </mxGeometry>
        </mxCell>
        <mxCell id="B7nKy264djmHCqe6Lyla-103" value="remove wold selected" style="rounded=0;whiteSpace=wrap;html=1;fillColor=#000099;strokeColor=#FF0000;" parent="1" vertex="1">
          <mxGeometry x="-1119" y="890" width="120" height="50" as="geometry" />
        </mxCell>
        <mxCell id="B7nKy264djmHCqe6Lyla-104" value="" style="endArrow=classic;html=1;rounded=0;exitX=0;exitY=0.5;exitDx=0;exitDy=0;fillColor=#000099;strokeColor=#FF0000;" parent="1" source="B7nKy264djmHCqe6Lyla-107" edge="1">
          <mxGeometry width="50" height="50" relative="1" as="geometry">
            <mxPoint x="-1074" y="814.47" as="sourcePoint" />
            <mxPoint x="-1219" y="890" as="targetPoint" />
            <Array as="points">
              <mxPoint x="-1139" y="814.47" />
              <mxPoint x="-1219" y="814" />
            </Array>
          </mxGeometry>
        </mxCell>
        <mxCell id="B7nKy264djmHCqe6Lyla-105" value="enter folder" style="rounded=0;whiteSpace=wrap;html=1;fillColor=#000099;strokeColor=#FF0000;" parent="1" vertex="1">
          <mxGeometry x="-1279" y="890" width="120" height="50" as="geometry" />
        </mxCell>
        <mxCell id="B7nKy264djmHCqe6Lyla-107" value="" style="ellipse;whiteSpace=wrap;html=1;aspect=fixed;fillColor=#000099;strokeColor=#FF0000;" parent="1" vertex="1">
          <mxGeometry x="-1069" y="804" width="20" height="20" as="geometry" />
        </mxCell>
        <mxCell id="B7nKy264djmHCqe6Lyla-110" value="" style="ellipse;whiteSpace=wrap;html=1;aspect=fixed;fillColor=#000099;strokeColor=#FF0000;" parent="1" vertex="1">
          <mxGeometry x="-1229" y="1000" width="20" height="20" as="geometry" />
        </mxCell>
        <mxCell id="B7nKy264djmHCqe6Lyla-111" value="" style="endArrow=classic;html=1;rounded=0;exitX=1;exitY=0.5;exitDx=0;exitDy=0;fillColor=#000099;strokeColor=#FF0000;" parent="1" edge="1">
          <mxGeometry width="50" height="50" relative="1" as="geometry">
            <mxPoint x="-1209" y="1010" as="sourcePoint" />
            <mxPoint x="-1129" y="1080" as="targetPoint" />
            <Array as="points">
              <mxPoint x="-1129" y="1010" />
            </Array>
          </mxGeometry>
        </mxCell>
        <mxCell id="B7nKy264djmHCqe6Lyla-112" value="" style="endArrow=classic;html=1;rounded=0;exitX=0.474;exitY=0.8;exitDx=0;exitDy=0;exitPerimeter=0;fillColor=#000099;strokeColor=#FF0000;" parent="1" edge="1">
          <mxGeometry width="50" height="50" relative="1" as="geometry">
            <mxPoint x="-1219.24" y="1020" as="sourcePoint" />
            <mxPoint x="-1219" y="1080" as="targetPoint" />
          </mxGeometry>
        </mxCell>
        <mxCell id="B7nKy264djmHCqe6Lyla-113" value="" style="endArrow=classic;html=1;rounded=0;entryX=0.5;entryY=0;entryDx=0;entryDy=0;fillColor=#000099;strokeColor=#FF0000;" parent="1" target="B7nKy264djmHCqe6Lyla-114" edge="1">
          <mxGeometry width="50" height="50" relative="1" as="geometry">
            <mxPoint x="-1229" y="1010" as="sourcePoint" />
            <mxPoint x="-1409" y="1070" as="targetPoint" />
            <Array as="points">
              <mxPoint x="-1269" y="1010.47" />
              <mxPoint x="-1409" y="1010" />
            </Array>
          </mxGeometry>
        </mxCell>
        <mxCell id="B7nKy264djmHCqe6Lyla-114" value="select&amp;nbsp; word" style="rounded=0;whiteSpace=wrap;html=1;fillColor=#000099;strokeColor=#FF0000;" parent="1" vertex="1">
          <mxGeometry x="-1449" y="1080" width="80" height="50" as="geometry" />
        </mxCell>
        <mxCell id="B7nKy264djmHCqe6Lyla-115" value="select all words" style="rounded=0;whiteSpace=wrap;html=1;fillColor=#000099;strokeColor=#FF0000;" parent="1" vertex="1">
          <mxGeometry x="-1259" y="1080" width="80" height="50" as="geometry" />
        </mxCell>
        <mxCell id="B7nKy264djmHCqe6Lyla-116" value="unselect all words" style="rounded=0;whiteSpace=wrap;html=1;fillColor=#000099;strokeColor=#FF0000;" parent="1" vertex="1">
          <mxGeometry x="-1169" y="1080" width="80" height="50" as="geometry" />
        </mxCell>
        <mxCell id="B7nKy264djmHCqe6Lyla-117" value="unselet word" style="rounded=0;whiteSpace=wrap;html=1;fillColor=#000099;strokeColor=#FF0000;" parent="1" vertex="1">
          <mxGeometry x="-1359" y="1080" width="80" height="50" as="geometry" />
        </mxCell>
        <mxCell id="B7nKy264djmHCqe6Lyla-119" value="" style="endArrow=classic;html=1;rounded=0;exitX=0.5;exitY=1;exitDx=0;exitDy=0;fillColor=#000099;strokeColor=#FF0000;" parent="1" source="B7nKy264djmHCqe6Lyla-114" edge="1">
          <mxGeometry width="50" height="50" relative="1" as="geometry">
            <mxPoint x="-1369" y="1210" as="sourcePoint" />
            <mxPoint x="-1279" y="1170" as="targetPoint" />
            <Array as="points">
              <mxPoint x="-1409" y="1170" />
            </Array>
          </mxGeometry>
        </mxCell>
        <mxCell id="B7nKy264djmHCqe6Lyla-120" value="" style="endArrow=none;html=1;rounded=0;fillColor=#000099;strokeColor=#FF0000;" parent="1" edge="1">
          <mxGeometry width="50" height="50" relative="1" as="geometry">
            <mxPoint x="-1329" y="1170" as="sourcePoint" />
            <mxPoint x="-1329" y="1130" as="targetPoint" />
          </mxGeometry>
        </mxCell>
        <mxCell id="B7nKy264djmHCqe6Lyla-121" value="" style="endArrow=none;html=1;rounded=0;fillColor=#000099;strokeColor=#FF0000;" parent="1" edge="1">
          <mxGeometry width="50" height="50" relative="1" as="geometry">
            <mxPoint x="-1219.26" y="1170" as="sourcePoint" />
            <mxPoint x="-1219.26" y="1130" as="targetPoint" />
            <Array as="points">
              <mxPoint x="-1219.26" y="1150" />
            </Array>
          </mxGeometry>
        </mxCell>
        <mxCell id="B7nKy264djmHCqe6Lyla-122" value="" style="ellipse;whiteSpace=wrap;html=1;aspect=fixed;fillColor=#000099;strokeColor=#FF0000;" parent="1" vertex="1">
          <mxGeometry x="-1279" y="1160" width="20" height="20" as="geometry" />
        </mxCell>
        <mxCell id="B7nKy264djmHCqe6Lyla-123" value="save" style="rounded=0;whiteSpace=wrap;html=1;fillColor=#000099;strokeColor=#FF0000;" parent="1" vertex="1">
          <mxGeometry x="-1309" y="1240" width="80" height="50" as="geometry" />
        </mxCell>
        <mxCell id="B7nKy264djmHCqe6Lyla-124" value="finish" style="rhombus;whiteSpace=wrap;html=1;fillColor=#000099;strokeColor=#FF0000;" parent="1" vertex="1">
          <mxGeometry x="-1100" y="1430" width="80" height="80" as="geometry" />
        </mxCell>
        <mxCell id="B7nKy264djmHCqe6Lyla-125" value="" style="ellipse;whiteSpace=wrap;html=1;aspect=fixed;fillColor=#000099;strokeColor=#FF0000;" parent="1" vertex="1">
          <mxGeometry x="-1069" y="1350" width="20" height="20" as="geometry" />
        </mxCell>
        <mxCell id="B7nKy264djmHCqe6Lyla-131" value="" style="endArrow=classic;html=1;rounded=0;fillColor=#000099;strokeColor=#FF0000;" parent="1" edge="1">
          <mxGeometry width="50" height="50" relative="1" as="geometry">
            <mxPoint x="-1019" y="1470" as="sourcePoint" />
            <mxPoint x="-839" y="1560" as="targetPoint" />
            <Array as="points">
              <mxPoint x="-839" y="1470" />
            </Array>
          </mxGeometry>
        </mxCell>
        <mxCell id="B7nKy264djmHCqe6Lyla-132" value="yes" style="edgeLabel;html=1;align=center;verticalAlign=middle;resizable=0;points=[];fillColor=#000099;strokeColor=#FF0000;" parent="B7nKy264djmHCqe6Lyla-131" vertex="1" connectable="0">
          <mxGeometry x="-0.1902" y="3" relative="1" as="geometry">
            <mxPoint as="offset" />
          </mxGeometry>
        </mxCell>
        <mxCell id="B7nKy264djmHCqe6Lyla-133" value="" style="ellipse;whiteSpace=wrap;html=1;aspect=fixed;fillColor=#000099;strokeColor=#FF0000;" parent="1" vertex="1">
          <mxGeometry x="-849" y="1560" width="20" height="20" as="geometry" />
        </mxCell>
        <mxCell id="B7nKy264djmHCqe6Lyla-134" value="" style="endArrow=classic;html=1;rounded=0;entryX=0.5;entryY=0;entryDx=0;entryDy=0;fillColor=#000099;strokeColor=#FF0000;" parent="1" target="B7nKy264djmHCqe6Lyla-136" edge="1">
          <mxGeometry width="50" height="50" relative="1" as="geometry">
            <mxPoint x="-829" y="1570" as="sourcePoint" />
            <mxPoint x="-749" y="1640" as="targetPoint" />
            <Array as="points">
              <mxPoint x="-659" y="1570" />
            </Array>
          </mxGeometry>
        </mxCell>
        <mxCell id="B7nKy264djmHCqe6Lyla-135" value="" style="endArrow=classic;html=1;rounded=0;entryX=0.5;entryY=0;entryDx=0;entryDy=0;fillColor=#000099;strokeColor=#FF0000;" parent="1" target="B7nKy264djmHCqe6Lyla-137" edge="1">
          <mxGeometry width="50" height="50" relative="1" as="geometry">
            <mxPoint x="-849" y="1570" as="sourcePoint" />
            <mxPoint x="-929" y="1640" as="targetPoint" />
            <Array as="points">
              <mxPoint x="-1039" y="1570" />
            </Array>
          </mxGeometry>
        </mxCell>
        <mxCell id="B7nKy264djmHCqe6Lyla-136" value="download pdf" style="rounded=0;whiteSpace=wrap;html=1;fillColor=#000099;strokeColor=#FF0000;" parent="1" vertex="1">
          <mxGeometry x="-719" y="1640" width="120" height="60" as="geometry" />
        </mxCell>
        <mxCell id="B7nKy264djmHCqe6Lyla-137" value="download sound" style="rounded=0;whiteSpace=wrap;html=1;fillColor=#000099;strokeColor=#FF0000;" parent="1" vertex="1">
          <mxGeometry x="-1099" y="1640" width="120" height="60" as="geometry" />
        </mxCell>
        <mxCell id="B7nKy264djmHCqe6Lyla-138" value="" style="endArrow=classic;html=1;rounded=0;fillColor=#000099;strokeColor=#FF0000;" parent="1" edge="1">
          <mxGeometry width="50" height="50" relative="1" as="geometry">
            <mxPoint x="-839" y="1580" as="sourcePoint" />
            <mxPoint x="-839" y="1640" as="targetPoint" />
          </mxGeometry>
        </mxCell>
        <mxCell id="B7nKy264djmHCqe6Lyla-139" value="&lt;span style=&quot;color: rgb(240, 240, 240); font-family: Helvetica; font-size: 12px; font-style: normal; font-variant-ligatures: normal; font-variant-caps: normal; font-weight: 400; letter-spacing: normal; orphans: 2; text-align: center; text-indent: 0px; text-transform: none; widows: 2; word-spacing: 0px; -webkit-text-stroke-width: 0px; white-space: normal; background-color: rgb(27, 29, 30); text-decoration-thickness: initial; text-decoration-style: initial; text-decoration-color: initial; display: inline !important; float: none;&quot;&gt;download pdf and sound&lt;/span&gt;" style="rounded=0;whiteSpace=wrap;html=1;fillColor=#000099;strokeColor=#FF0000;" parent="1" vertex="1">
          <mxGeometry x="-899" y="1640" width="120" height="60" as="geometry" />
        </mxCell>
        <mxCell id="CrBWPl1Ne-4bjIFeGxdU-1" value="" style="endArrow=none;html=1;rounded=0;fillColor=#000099;strokeColor=#FF0000;" edge="1" parent="1">
          <mxGeometry width="50" height="50" relative="1" as="geometry">
            <mxPoint x="-899" y="814" as="sourcePoint" />
            <mxPoint x="-729" y="814" as="targetPoint" />
            <Array as="points">
              <mxPoint x="-729" y="814" />
            </Array>
          </mxGeometry>
        </mxCell>
        <mxCell id="CrBWPl1Ne-4bjIFeGxdU-2" value="" style="endArrow=classic;html=1;rounded=0;fillColor=#000099;strokeColor=#FF0000;" edge="1" parent="1">
          <mxGeometry width="50" height="50" relative="1" as="geometry">
            <mxPoint x="-729" y="814" as="sourcePoint" />
            <mxPoint x="-729" y="890" as="targetPoint" />
          </mxGeometry>
        </mxCell>
        <mxCell id="CrBWPl1Ne-4bjIFeGxdU-3" value="search" style="rounded=0;whiteSpace=wrap;html=1;fillColor=#000099;strokeColor=#FF0000;" vertex="1" parent="1">
          <mxGeometry x="-789" y="890" width="120" height="50" as="geometry" />
        </mxCell>
        <mxCell id="CrBWPl1Ne-4bjIFeGxdU-4" value="" style="endArrow=classic;html=1;rounded=0;exitX=0.5;exitY=1;exitDx=0;exitDy=0;fillColor=#000099;strokeColor=#FF0000;" edge="1" parent="1" source="CrBWPl1Ne-4bjIFeGxdU-3">
          <mxGeometry width="50" height="50" relative="1" as="geometry">
            <mxPoint x="-679" y="1010" as="sourcePoint" />
            <mxPoint x="-729" y="1000" as="targetPoint" />
          </mxGeometry>
        </mxCell>
        <mxCell id="CrBWPl1Ne-4bjIFeGxdU-5" value="select&amp;nbsp;" style="rounded=0;whiteSpace=wrap;html=1;fillColor=#000099;strokeColor=#FF0000;" vertex="1" parent="1">
          <mxGeometry x="-789" y="1080" width="120" height="50" as="geometry" />
        </mxCell>
        <mxCell id="CrBWPl1Ne-4bjIFeGxdU-6" value="" style="ellipse;whiteSpace=wrap;html=1;aspect=fixed;fillColor=#000099;strokeColor=#FF0000;" vertex="1" parent="1">
          <mxGeometry x="-739" y="1000" width="20" height="20" as="geometry" />
        </mxCell>
        <mxCell id="CrBWPl1Ne-4bjIFeGxdU-7" value="" style="endArrow=classic;html=1;rounded=0;exitX=0.5;exitY=1;exitDx=0;exitDy=0;fillColor=#000099;strokeColor=#FF0000;" edge="1" parent="1" source="CrBWPl1Ne-4bjIFeGxdU-6">
          <mxGeometry width="50" height="50" relative="1" as="geometry">
            <mxPoint x="-679" y="1060" as="sourcePoint" />
            <mxPoint x="-729" y="1080" as="targetPoint" />
          </mxGeometry>
        </mxCell>
        <mxCell id="CrBWPl1Ne-4bjIFeGxdU-8" value="" style="endArrow=classic;html=1;rounded=0;fillColor=#000099;strokeColor=#FF0000;" edge="1" parent="1">
          <mxGeometry width="50" height="50" relative="1" as="geometry">
            <mxPoint x="-719" y="1010" as="sourcePoint" />
            <mxPoint x="-539" y="1080" as="targetPoint" />
            <Array as="points">
              <mxPoint x="-539" y="1010" />
            </Array>
          </mxGeometry>
        </mxCell>
        <mxCell id="CrBWPl1Ne-4bjIFeGxdU-9" value="unselect" style="rounded=0;whiteSpace=wrap;html=1;fillColor=#000099;strokeColor=#FF0000;" vertex="1" parent="1">
          <mxGeometry x="-599" y="1080" width="120" height="50" as="geometry" />
        </mxCell>
        <mxCell id="CrBWPl1Ne-4bjIFeGxdU-10" value="" style="ellipse;whiteSpace=wrap;html=1;aspect=fixed;fillColor=#000099;strokeColor=#FF0000;" vertex="1" parent="1">
          <mxGeometry x="-639" y="1200" width="20" height="20" as="geometry" />
        </mxCell>
        <mxCell id="CrBWPl1Ne-4bjIFeGxdU-11" value="" style="endArrow=classic;html=1;rounded=0;exitX=0.5;exitY=1;exitDx=0;exitDy=0;entryX=1;entryY=0.5;entryDx=0;entryDy=0;fillColor=#000099;strokeColor=#FF0000;" edge="1" parent="1" source="CrBWPl1Ne-4bjIFeGxdU-9" target="CrBWPl1Ne-4bjIFeGxdU-10">
          <mxGeometry width="50" height="50" relative="1" as="geometry">
            <mxPoint x="-499" y="1200" as="sourcePoint" />
            <mxPoint x="-539" y="1280" as="targetPoint" />
            <Array as="points">
              <mxPoint x="-539" y="1210" />
            </Array>
          </mxGeometry>
        </mxCell>
        <mxCell id="CrBWPl1Ne-4bjIFeGxdU-12" value="" style="endArrow=classic;html=1;rounded=0;exitX=0.5;exitY=1;exitDx=0;exitDy=0;entryX=0;entryY=0.5;entryDx=0;entryDy=0;fillColor=#000099;strokeColor=#FF0000;" edge="1" parent="1" target="CrBWPl1Ne-4bjIFeGxdU-10">
          <mxGeometry width="50" height="50" relative="1" as="geometry">
            <mxPoint x="-729" y="1130" as="sourcePoint" />
            <mxPoint x="-809" y="1210" as="targetPoint" />
            <Array as="points">
              <mxPoint x="-729" y="1210" />
            </Array>
          </mxGeometry>
        </mxCell>
        <mxCell id="CrBWPl1Ne-4bjIFeGxdU-13" value="" style="endArrow=classic;html=1;rounded=0;exitX=0.5;exitY=1;exitDx=0;exitDy=0;entryX=1;entryY=0.5;entryDx=0;entryDy=0;fillColor=#000099;strokeColor=#FF0000;" edge="1" parent="1" target="CrBWPl1Ne-4bjIFeGxdU-14">
          <mxGeometry width="50" height="50" relative="1" as="geometry">
            <mxPoint x="-629" y="1220" as="sourcePoint" />
            <mxPoint x="-819" y="1360" as="targetPoint" />
            <Array as="points">
              <mxPoint x="-629" y="1360" />
            </Array>
          </mxGeometry>
        </mxCell>
        <mxCell id="CrBWPl1Ne-4bjIFeGxdU-14" value="" style="ellipse;whiteSpace=wrap;html=1;aspect=fixed;fillColor=#000099;strokeColor=#FF0000;" vertex="1" parent="1">
          <mxGeometry x="-909" y="1350" width="20" height="20" as="geometry" />
        </mxCell>
        <mxCell id="CrBWPl1Ne-4bjIFeGxdU-15" value="" style="endArrow=classic;html=1;rounded=0;exitX=0;exitY=0.5;exitDx=0;exitDy=0;entryX=1;entryY=0.5;entryDx=0;entryDy=0;fillColor=#000099;strokeColor=#FF0000;" edge="1" parent="1" source="CrBWPl1Ne-4bjIFeGxdU-14" target="B7nKy264djmHCqe6Lyla-125">
          <mxGeometry width="50" height="50" relative="1" as="geometry">
            <mxPoint x="-969" y="1360" as="sourcePoint" />
            <mxPoint x="-919" y="1310" as="targetPoint" />
          </mxGeometry>
        </mxCell>
        <mxCell id="CrBWPl1Ne-4bjIFeGxdU-18" value="" style="endArrow=classic;html=1;rounded=0;exitX=0.442;exitY=0.937;exitDx=0;exitDy=0;exitPerimeter=0;fillColor=#000099;strokeColor=#FF0000;" edge="1" parent="1">
          <mxGeometry width="50" height="50" relative="1" as="geometry">
            <mxPoint x="-40.13000000000004" y="679.9999999999999" as="sourcePoint" />
            <mxPoint x="-40.17" y="783.78" as="targetPoint" />
            <Array as="points">
              <mxPoint x="-40.17" y="713.78" />
              <mxPoint x="-40.17" y="733.78" />
              <mxPoint x="-40.17" y="743.78" />
            </Array>
          </mxGeometry>
        </mxCell>
        <mxCell id="CrBWPl1Ne-4bjIFeGxdU-19" value="select word" style="rounded=0;whiteSpace=wrap;html=1;fillColor=#000099;strokeColor=#FF0000;" vertex="1" parent="1">
          <mxGeometry x="30" y="880" width="120" height="60" as="geometry" />
        </mxCell>
        <mxCell id="CrBWPl1Ne-4bjIFeGxdU-20" value="" style="ellipse;whiteSpace=wrap;html=1;aspect=fixed;fillColor=#000099;strokeColor=#FF0000;" vertex="1" parent="1">
          <mxGeometry x="-50" y="784" width="20" height="20" as="geometry" />
        </mxCell>
        <mxCell id="CrBWPl1Ne-4bjIFeGxdU-24" value="" style="endArrow=classic;html=1;rounded=0;fillColor=#000099;strokeColor=#FF0000;" edge="1" parent="1">
          <mxGeometry width="50" height="50" relative="1" as="geometry">
            <mxPoint x="-30" y="793.5" as="sourcePoint" />
            <mxPoint x="90" y="880" as="targetPoint" />
            <Array as="points">
              <mxPoint x="90" y="794" />
            </Array>
          </mxGeometry>
        </mxCell>
        <mxCell id="CrBWPl1Ne-4bjIFeGxdU-25" value="&amp;nbsp;from all word&amp;nbsp;" style="rounded=0;whiteSpace=wrap;html=1;fillColor=#000099;strokeColor=#FF0000;" vertex="1" parent="1">
          <mxGeometry x="-270" y="880" width="120" height="60" as="geometry" />
        </mxCell>
        <mxCell id="CrBWPl1Ne-4bjIFeGxdU-26" value="" style="endArrow=classic;html=1;rounded=0;exitX=0;exitY=0.5;exitDx=0;exitDy=0;fillColor=#000099;strokeColor=#FF0000;" edge="1" parent="1" source="CrBWPl1Ne-4bjIFeGxdU-20">
          <mxGeometry width="50" height="50" relative="1" as="geometry">
            <mxPoint x="-150" y="820" as="sourcePoint" />
            <mxPoint x="-203" y="880" as="targetPoint" />
            <Array as="points">
              <mxPoint x="-203" y="794" />
            </Array>
          </mxGeometry>
        </mxCell>
        <mxCell id="CrBWPl1Ne-4bjIFeGxdU-75" value="" style="endArrow=classic;html=1;rounded=0;entryX=0.5;entryY=0;entryDx=0;entryDy=0;exitX=1;exitY=0.5;exitDx=0;exitDy=0;fillColor=#000099;strokeColor=#FF0000;" edge="1" parent="1" source="CrBWPl1Ne-4bjIFeGxdU-91" target="CrBWPl1Ne-4bjIFeGxdU-76">
          <mxGeometry width="50" height="50" relative="1" as="geometry">
            <mxPoint x="105" y="1934.4099999999999" as="sourcePoint" />
            <mxPoint x="210" y="2000" as="targetPoint" />
            <Array as="points">
              <mxPoint x="250" y="1934" />
            </Array>
          </mxGeometry>
        </mxCell>
        <mxCell id="CrBWPl1Ne-4bjIFeGxdU-76" value="show word selected" style="rounded=0;whiteSpace=wrap;html=1;fillColor=#000099;strokeColor=#FF0000;" vertex="1" parent="1">
          <mxGeometry x="190" y="2010" width="120" height="50" as="geometry" />
        </mxCell>
        <mxCell id="CrBWPl1Ne-4bjIFeGxdU-77" value="" style="endArrow=classic;html=1;rounded=0;exitX=0.474;exitY=0.8;exitDx=0;exitDy=0;exitPerimeter=0;fillColor=#000099;strokeColor=#FF0000;" edge="1" parent="1" source="CrBWPl1Ne-4bjIFeGxdU-91">
          <mxGeometry width="50" height="50" relative="1" as="geometry">
            <mxPoint x="89.47000000000003" y="1950" as="sourcePoint" />
            <mxPoint x="89.47000000000003" y="2010" as="targetPoint" />
          </mxGeometry>
        </mxCell>
        <mxCell id="CrBWPl1Ne-4bjIFeGxdU-78" value="" style="endArrow=classic;html=1;rounded=0;entryX=0.5;entryY=0;entryDx=0;entryDy=0;fillColor=#000099;strokeColor=#FF0000;" edge="1" parent="1" target="CrBWPl1Ne-4bjIFeGxdU-99">
          <mxGeometry width="50" height="50" relative="1" as="geometry">
            <mxPoint x="-170.82999999999993" y="2130" as="sourcePoint" />
            <mxPoint x="-170.82999999999993" y="2190" as="targetPoint" />
          </mxGeometry>
        </mxCell>
        <mxCell id="CrBWPl1Ne-4bjIFeGxdU-79" value="" style="endArrow=classic;html=1;rounded=0;fillColor=#000099;strokeColor=#FF0000;" edge="1" parent="1">
          <mxGeometry width="50" height="50" relative="1" as="geometry">
            <mxPoint x="-70.52999999999997" y="2060" as="sourcePoint" />
            <mxPoint x="-70.52999999999997" y="2120" as="targetPoint" />
          </mxGeometry>
        </mxCell>
        <mxCell id="CrBWPl1Ne-4bjIFeGxdU-80" value="" style="endArrow=classic;html=1;rounded=0;fillColor=#000099;strokeColor=#FF0000;" edge="1" parent="1">
          <mxGeometry width="50" height="50" relative="1" as="geometry">
            <mxPoint x="-120" y="2300" as="sourcePoint" />
            <mxPoint x="-120" y="2360" as="targetPoint" />
          </mxGeometry>
        </mxCell>
        <mxCell id="CrBWPl1Ne-4bjIFeGxdU-81" value="" style="endArrow=classic;html=1;rounded=0;fillColor=#000099;strokeColor=#FF0000;" edge="1" parent="1">
          <mxGeometry width="50" height="50" relative="1" as="geometry">
            <mxPoint x="10" y="2250" as="sourcePoint" />
            <mxPoint x="-110" y="2290" as="targetPoint" />
            <Array as="points">
              <mxPoint x="10" y="2290" />
            </Array>
          </mxGeometry>
        </mxCell>
        <mxCell id="CrBWPl1Ne-4bjIFeGxdU-82" value="" style="endArrow=classic;html=1;rounded=0;fillColor=#000099;strokeColor=#FF0000;" edge="1" parent="1">
          <mxGeometry width="50" height="50" relative="1" as="geometry">
            <mxPoint x="249.40999999999997" y="2060" as="sourcePoint" />
            <mxPoint x="250" y="2470" as="targetPoint" />
            <Array as="points">
              <mxPoint x="249" y="2350" />
            </Array>
          </mxGeometry>
        </mxCell>
        <mxCell id="CrBWPl1Ne-4bjIFeGxdU-83" value="" style="endArrow=classic;html=1;rounded=0;fillColor=#000099;strokeColor=#FF0000;" edge="1" parent="1">
          <mxGeometry width="50" height="50" relative="1" as="geometry">
            <mxPoint x="49" y="2590" as="sourcePoint" />
            <mxPoint x="90" y="1870" as="targetPoint" />
            <Array as="points">
              <mxPoint x="-31" y="2590" />
              <mxPoint x="-490" y="2590" />
              <mxPoint x="-490" y="2130" />
              <mxPoint x="-490" y="1870" />
            </Array>
          </mxGeometry>
        </mxCell>
        <mxCell id="CrBWPl1Ne-4bjIFeGxdU-84" value="no&lt;div&gt;&lt;br&gt;&lt;/div&gt;" style="edgeLabel;html=1;align=center;verticalAlign=middle;resizable=0;points=[];fillColor=#000099;strokeColor=#FF0000;" vertex="1" connectable="0" parent="CrBWPl1Ne-4bjIFeGxdU-83">
          <mxGeometry x="-0.7475" y="-2" relative="1" as="geometry">
            <mxPoint x="1" y="8" as="offset" />
          </mxGeometry>
        </mxCell>
        <mxCell id="CrBWPl1Ne-4bjIFeGxdU-85" value="" style="endArrow=classic;html=1;rounded=0;entryX=0;entryY=0.5;entryDx=0;entryDy=0;fillColor=#000099;strokeColor=#FF0000;" edge="1" parent="1" target="CrBWPl1Ne-4bjIFeGxdU-106">
          <mxGeometry width="50" height="50" relative="1" as="geometry">
            <mxPoint x="-120" y="2410" as="sourcePoint" />
            <mxPoint x="60" y="2480" as="targetPoint" />
            <Array as="points">
              <mxPoint x="-120" y="2480" />
            </Array>
          </mxGeometry>
        </mxCell>
        <mxCell id="CrBWPl1Ne-4bjIFeGxdU-86" value="" style="endArrow=classic;html=1;rounded=0;entryX=0.5;entryY=0;entryDx=0;entryDy=0;fillColor=#000099;strokeColor=#FF0000;" edge="1" parent="1" target="CrBWPl1Ne-4bjIFeGxdU-106">
          <mxGeometry width="50" height="50" relative="1" as="geometry">
            <mxPoint x="89.40999999999985" y="2060" as="sourcePoint" />
            <mxPoint x="89" y="2460" as="targetPoint" />
          </mxGeometry>
        </mxCell>
        <mxCell id="CrBWPl1Ne-4bjIFeGxdU-87" value="" style="endArrow=classic;html=1;rounded=0;fillColor=#000099;strokeColor=#FF0000;" edge="1" parent="1">
          <mxGeometry width="50" height="50" relative="1" as="geometry">
            <mxPoint x="89.28999999999996" y="2490" as="sourcePoint" />
            <mxPoint x="89.28999999999996" y="2550" as="targetPoint" />
          </mxGeometry>
        </mxCell>
        <mxCell id="CrBWPl1Ne-4bjIFeGxdU-88" value="remove wold selected" style="rounded=0;whiteSpace=wrap;html=1;fillColor=#000099;strokeColor=#FF0000;" vertex="1" parent="1">
          <mxGeometry x="30" y="2010" width="120" height="50" as="geometry" />
        </mxCell>
        <mxCell id="CrBWPl1Ne-4bjIFeGxdU-89" value="" style="endArrow=classic;html=1;rounded=0;exitX=0;exitY=0.5;exitDx=0;exitDy=0;fillColor=#000099;strokeColor=#FF0000;" edge="1" parent="1" source="CrBWPl1Ne-4bjIFeGxdU-91">
          <mxGeometry width="50" height="50" relative="1" as="geometry">
            <mxPoint x="75" y="1934.47" as="sourcePoint" />
            <mxPoint x="-70" y="2010" as="targetPoint" />
            <Array as="points">
              <mxPoint x="10" y="1934.47" />
              <mxPoint x="-70" y="1934" />
            </Array>
          </mxGeometry>
        </mxCell>
        <mxCell id="CrBWPl1Ne-4bjIFeGxdU-90" value="enter folder" style="rounded=0;whiteSpace=wrap;html=1;fillColor=#000099;strokeColor=#FF0000;" vertex="1" parent="1">
          <mxGeometry x="-130" y="2010" width="120" height="50" as="geometry" />
        </mxCell>
        <mxCell id="CrBWPl1Ne-4bjIFeGxdU-91" value="" style="ellipse;whiteSpace=wrap;html=1;aspect=fixed;fillColor=#000099;strokeColor=#FF0000;" vertex="1" parent="1">
          <mxGeometry x="80" y="1924" width="20" height="20" as="geometry" />
        </mxCell>
        <mxCell id="CrBWPl1Ne-4bjIFeGxdU-92" value="" style="ellipse;whiteSpace=wrap;html=1;aspect=fixed;fillColor=#000099;strokeColor=#FF0000;" vertex="1" parent="1">
          <mxGeometry x="-80" y="2120" width="20" height="20" as="geometry" />
        </mxCell>
        <mxCell id="CrBWPl1Ne-4bjIFeGxdU-93" value="" style="endArrow=classic;html=1;rounded=0;exitX=1;exitY=0.5;exitDx=0;exitDy=0;fillColor=#000099;strokeColor=#FF0000;" edge="1" parent="1">
          <mxGeometry width="50" height="50" relative="1" as="geometry">
            <mxPoint x="-60" y="2130" as="sourcePoint" />
            <mxPoint x="20" y="2200" as="targetPoint" />
            <Array as="points">
              <mxPoint x="20" y="2130" />
            </Array>
          </mxGeometry>
        </mxCell>
        <mxCell id="CrBWPl1Ne-4bjIFeGxdU-94" value="" style="endArrow=classic;html=1;rounded=0;exitX=0.474;exitY=0.8;exitDx=0;exitDy=0;exitPerimeter=0;fillColor=#000099;strokeColor=#FF0000;" edge="1" parent="1">
          <mxGeometry width="50" height="50" relative="1" as="geometry">
            <mxPoint x="-70.24000000000001" y="2140" as="sourcePoint" />
            <mxPoint x="-70" y="2200" as="targetPoint" />
          </mxGeometry>
        </mxCell>
        <mxCell id="CrBWPl1Ne-4bjIFeGxdU-95" value="" style="endArrow=classic;html=1;rounded=0;entryX=0.5;entryY=0;entryDx=0;entryDy=0;fillColor=#000099;strokeColor=#FF0000;" edge="1" parent="1" target="CrBWPl1Ne-4bjIFeGxdU-96">
          <mxGeometry width="50" height="50" relative="1" as="geometry">
            <mxPoint x="-80" y="2130" as="sourcePoint" />
            <mxPoint x="-260" y="2190" as="targetPoint" />
            <Array as="points">
              <mxPoint x="-120" y="2130.4700000000003" />
              <mxPoint x="-260" y="2130" />
            </Array>
          </mxGeometry>
        </mxCell>
        <mxCell id="CrBWPl1Ne-4bjIFeGxdU-96" value="select&amp;nbsp; word" style="rounded=0;whiteSpace=wrap;html=1;fillColor=#000099;strokeColor=#FF0000;" vertex="1" parent="1">
          <mxGeometry x="-300" y="2200" width="80" height="50" as="geometry" />
        </mxCell>
        <mxCell id="CrBWPl1Ne-4bjIFeGxdU-97" value="select all words" style="rounded=0;whiteSpace=wrap;html=1;fillColor=#000099;strokeColor=#FF0000;" vertex="1" parent="1">
          <mxGeometry x="-110" y="2200" width="80" height="50" as="geometry" />
        </mxCell>
        <mxCell id="CrBWPl1Ne-4bjIFeGxdU-98" value="unselect all words" style="rounded=0;whiteSpace=wrap;html=1;fillColor=#000099;strokeColor=#FF0000;" vertex="1" parent="1">
          <mxGeometry x="-20" y="2200" width="80" height="50" as="geometry" />
        </mxCell>
        <mxCell id="CrBWPl1Ne-4bjIFeGxdU-99" value="unselet word" style="rounded=0;whiteSpace=wrap;html=1;fillColor=#000099;strokeColor=#FF0000;" vertex="1" parent="1">
          <mxGeometry x="-210" y="2200" width="80" height="50" as="geometry" />
        </mxCell>
        <mxCell id="CrBWPl1Ne-4bjIFeGxdU-100" value="" style="endArrow=classic;html=1;rounded=0;exitX=0.5;exitY=1;exitDx=0;exitDy=0;fillColor=#000099;strokeColor=#FF0000;" edge="1" parent="1" source="CrBWPl1Ne-4bjIFeGxdU-96">
          <mxGeometry width="50" height="50" relative="1" as="geometry">
            <mxPoint x="-220" y="2330" as="sourcePoint" />
            <mxPoint x="-130" y="2290" as="targetPoint" />
            <Array as="points">
              <mxPoint x="-260" y="2290" />
            </Array>
          </mxGeometry>
        </mxCell>
        <mxCell id="CrBWPl1Ne-4bjIFeGxdU-101" value="" style="endArrow=none;html=1;rounded=0;fillColor=#000099;strokeColor=#FF0000;" edge="1" parent="1">
          <mxGeometry width="50" height="50" relative="1" as="geometry">
            <mxPoint x="-180" y="2290" as="sourcePoint" />
            <mxPoint x="-180" y="2250" as="targetPoint" />
          </mxGeometry>
        </mxCell>
        <mxCell id="CrBWPl1Ne-4bjIFeGxdU-102" value="" style="endArrow=none;html=1;rounded=0;fillColor=#000099;strokeColor=#FF0000;" edge="1" parent="1">
          <mxGeometry width="50" height="50" relative="1" as="geometry">
            <mxPoint x="-70.25999999999999" y="2290" as="sourcePoint" />
            <mxPoint x="-70.25999999999999" y="2250" as="targetPoint" />
            <Array as="points">
              <mxPoint x="-70.25999999999999" y="2270" />
            </Array>
          </mxGeometry>
        </mxCell>
        <mxCell id="CrBWPl1Ne-4bjIFeGxdU-103" value="" style="ellipse;whiteSpace=wrap;html=1;aspect=fixed;fillColor=#000099;strokeColor=#FF0000;" vertex="1" parent="1">
          <mxGeometry x="-130" y="2280" width="20" height="20" as="geometry" />
        </mxCell>
        <mxCell id="CrBWPl1Ne-4bjIFeGxdU-104" value="save" style="rounded=0;whiteSpace=wrap;html=1;fillColor=#000099;strokeColor=#FF0000;" vertex="1" parent="1">
          <mxGeometry x="-160" y="2360" width="80" height="50" as="geometry" />
        </mxCell>
        <mxCell id="CrBWPl1Ne-4bjIFeGxdU-105" value="finish" style="rhombus;whiteSpace=wrap;html=1;fillColor=#000099;strokeColor=#FF0000;" vertex="1" parent="1">
          <mxGeometry x="49" y="2550" width="80" height="80" as="geometry" />
        </mxCell>
        <mxCell id="CrBWPl1Ne-4bjIFeGxdU-106" value="" style="ellipse;whiteSpace=wrap;html=1;aspect=fixed;fillColor=#000099;strokeColor=#FF0000;" vertex="1" parent="1">
          <mxGeometry x="80" y="2470" width="20" height="20" as="geometry" />
        </mxCell>
        <mxCell id="CrBWPl1Ne-4bjIFeGxdU-108" value="" style="endArrow=none;html=1;rounded=0;fillColor=#000099;strokeColor=#FF0000;" edge="1" parent="1">
          <mxGeometry width="50" height="50" relative="1" as="geometry">
            <mxPoint x="250" y="1934" as="sourcePoint" />
            <mxPoint x="420" y="1934" as="targetPoint" />
            <Array as="points">
              <mxPoint x="420" y="1934" />
            </Array>
          </mxGeometry>
        </mxCell>
        <mxCell id="CrBWPl1Ne-4bjIFeGxdU-109" value="" style="endArrow=classic;html=1;rounded=0;fillColor=#000099;strokeColor=#FF0000;" edge="1" parent="1">
          <mxGeometry width="50" height="50" relative="1" as="geometry">
            <mxPoint x="420" y="1934" as="sourcePoint" />
            <mxPoint x="420" y="2010" as="targetPoint" />
          </mxGeometry>
        </mxCell>
        <mxCell id="CrBWPl1Ne-4bjIFeGxdU-110" value="search" style="rounded=0;whiteSpace=wrap;html=1;fillColor=#000099;strokeColor=#FF0000;" vertex="1" parent="1">
          <mxGeometry x="360" y="2010" width="120" height="50" as="geometry" />
        </mxCell>
        <mxCell id="CrBWPl1Ne-4bjIFeGxdU-111" value="" style="endArrow=classic;html=1;rounded=0;exitX=0.5;exitY=1;exitDx=0;exitDy=0;fillColor=#000099;strokeColor=#FF0000;" edge="1" parent="1" source="CrBWPl1Ne-4bjIFeGxdU-110">
          <mxGeometry width="50" height="50" relative="1" as="geometry">
            <mxPoint x="470" y="2130" as="sourcePoint" />
            <mxPoint x="420" y="2120" as="targetPoint" />
          </mxGeometry>
        </mxCell>
        <mxCell id="CrBWPl1Ne-4bjIFeGxdU-112" value="select&amp;nbsp;" style="rounded=0;whiteSpace=wrap;html=1;fillColor=#000099;strokeColor=#FF0000;" vertex="1" parent="1">
          <mxGeometry x="360" y="2200" width="120" height="50" as="geometry" />
        </mxCell>
        <mxCell id="CrBWPl1Ne-4bjIFeGxdU-113" value="" style="ellipse;whiteSpace=wrap;html=1;aspect=fixed;fillColor=#000099;strokeColor=#FF0000;" vertex="1" parent="1">
          <mxGeometry x="410" y="2120" width="20" height="20" as="geometry" />
        </mxCell>
        <mxCell id="CrBWPl1Ne-4bjIFeGxdU-114" value="" style="endArrow=classic;html=1;rounded=0;exitX=0.5;exitY=1;exitDx=0;exitDy=0;fillColor=#000099;strokeColor=#FF0000;" edge="1" parent="1" source="CrBWPl1Ne-4bjIFeGxdU-113">
          <mxGeometry width="50" height="50" relative="1" as="geometry">
            <mxPoint x="470" y="2180" as="sourcePoint" />
            <mxPoint x="420" y="2200" as="targetPoint" />
          </mxGeometry>
        </mxCell>
        <mxCell id="CrBWPl1Ne-4bjIFeGxdU-115" value="" style="endArrow=classic;html=1;rounded=0;fillColor=#000099;strokeColor=#FF0000;" edge="1" parent="1">
          <mxGeometry width="50" height="50" relative="1" as="geometry">
            <mxPoint x="430" y="2130" as="sourcePoint" />
            <mxPoint x="610" y="2200" as="targetPoint" />
            <Array as="points">
              <mxPoint x="610" y="2130" />
            </Array>
          </mxGeometry>
        </mxCell>
        <mxCell id="CrBWPl1Ne-4bjIFeGxdU-116" value="unselect" style="rounded=0;whiteSpace=wrap;html=1;fillColor=#000099;strokeColor=#FF0000;" vertex="1" parent="1">
          <mxGeometry x="550" y="2200" width="120" height="50" as="geometry" />
        </mxCell>
        <mxCell id="CrBWPl1Ne-4bjIFeGxdU-117" value="" style="ellipse;whiteSpace=wrap;html=1;aspect=fixed;fillColor=#000099;strokeColor=#FF0000;" vertex="1" parent="1">
          <mxGeometry x="510" y="2320" width="20" height="20" as="geometry" />
        </mxCell>
        <mxCell id="CrBWPl1Ne-4bjIFeGxdU-118" value="" style="endArrow=classic;html=1;rounded=0;exitX=0.5;exitY=1;exitDx=0;exitDy=0;entryX=1;entryY=0.5;entryDx=0;entryDy=0;fillColor=#000099;strokeColor=#FF0000;" edge="1" parent="1" source="CrBWPl1Ne-4bjIFeGxdU-116" target="CrBWPl1Ne-4bjIFeGxdU-117">
          <mxGeometry width="50" height="50" relative="1" as="geometry">
            <mxPoint x="650" y="2320" as="sourcePoint" />
            <mxPoint x="610" y="2400" as="targetPoint" />
            <Array as="points">
              <mxPoint x="610" y="2330" />
            </Array>
          </mxGeometry>
        </mxCell>
        <mxCell id="CrBWPl1Ne-4bjIFeGxdU-119" value="" style="endArrow=classic;html=1;rounded=0;exitX=0.5;exitY=1;exitDx=0;exitDy=0;entryX=0;entryY=0.5;entryDx=0;entryDy=0;fillColor=#000099;strokeColor=#FF0000;" edge="1" parent="1" target="CrBWPl1Ne-4bjIFeGxdU-117">
          <mxGeometry width="50" height="50" relative="1" as="geometry">
            <mxPoint x="420" y="2250" as="sourcePoint" />
            <mxPoint x="340" y="2330" as="targetPoint" />
            <Array as="points">
              <mxPoint x="420" y="2330" />
            </Array>
          </mxGeometry>
        </mxCell>
        <mxCell id="CrBWPl1Ne-4bjIFeGxdU-120" value="" style="endArrow=classic;html=1;rounded=0;exitX=0.5;exitY=1;exitDx=0;exitDy=0;entryX=1;entryY=0.5;entryDx=0;entryDy=0;fillColor=#000099;strokeColor=#FF0000;" edge="1" parent="1" target="CrBWPl1Ne-4bjIFeGxdU-121">
          <mxGeometry width="50" height="50" relative="1" as="geometry">
            <mxPoint x="520" y="2340" as="sourcePoint" />
            <mxPoint x="330" y="2480" as="targetPoint" />
            <Array as="points">
              <mxPoint x="520" y="2480" />
            </Array>
          </mxGeometry>
        </mxCell>
        <mxCell id="CrBWPl1Ne-4bjIFeGxdU-121" value="" style="ellipse;whiteSpace=wrap;html=1;aspect=fixed;fillColor=#000099;strokeColor=#FF0000;" vertex="1" parent="1">
          <mxGeometry x="240" y="2470" width="20" height="20" as="geometry" />
        </mxCell>
        <mxCell id="CrBWPl1Ne-4bjIFeGxdU-122" value="" style="endArrow=classic;html=1;rounded=0;exitX=0;exitY=0.5;exitDx=0;exitDy=0;entryX=1;entryY=0.5;entryDx=0;entryDy=0;fillColor=#000099;strokeColor=#FF0000;" edge="1" parent="1" source="CrBWPl1Ne-4bjIFeGxdU-121" target="CrBWPl1Ne-4bjIFeGxdU-106">
          <mxGeometry width="50" height="50" relative="1" as="geometry">
            <mxPoint x="180" y="2480" as="sourcePoint" />
            <mxPoint x="230" y="2430" as="targetPoint" />
          </mxGeometry>
        </mxCell>
        <mxCell id="CrBWPl1Ne-4bjIFeGxdU-123" value="" style="endArrow=classic;html=1;rounded=0;exitX=0.5;exitY=1;exitDx=0;exitDy=0;entryX=0.5;entryY=0;entryDx=0;entryDy=0;fillColor=#000099;strokeColor=#FF0000;" edge="1" parent="1" source="CrBWPl1Ne-4bjIFeGxdU-19" target="CrBWPl1Ne-4bjIFeGxdU-91">
          <mxGeometry width="50" height="50" relative="1" as="geometry">
            <mxPoint x="100" y="1080" as="sourcePoint" />
            <mxPoint x="90" y="1040" as="targetPoint" />
          </mxGeometry>
        </mxCell>
        <mxCell id="CrBWPl1Ne-4bjIFeGxdU-126" value="" style="endArrow=classic;html=1;rounded=0;fillColor=#000099;strokeColor=#FF0000;" edge="1" parent="1">
          <mxGeometry width="50" height="50" relative="1" as="geometry">
            <mxPoint x="130" y="2590" as="sourcePoint" />
            <mxPoint x="310" y="2800" as="targetPoint" />
            <Array as="points">
              <mxPoint x="310" y="2590" />
            </Array>
          </mxGeometry>
        </mxCell>
        <mxCell id="CrBWPl1Ne-4bjIFeGxdU-127" value="yes" style="edgeLabel;html=1;align=center;verticalAlign=middle;resizable=0;points=[];fillColor=#000099;strokeColor=#FF0000;" vertex="1" connectable="0" parent="CrBWPl1Ne-4bjIFeGxdU-126">
          <mxGeometry x="0.2441" y="1" relative="1" as="geometry">
            <mxPoint x="-78" y="-62" as="offset" />
          </mxGeometry>
        </mxCell>
        <mxCell id="CrBWPl1Ne-4bjIFeGxdU-128" value="start exam&amp;nbsp;" style="rounded=0;whiteSpace=wrap;html=1;fillColor=#000099;strokeColor=#FF0000;" vertex="1" parent="1">
          <mxGeometry x="251" y="2800" width="120" height="60" as="geometry" />
        </mxCell>
        <mxCell id="CrBWPl1Ne-4bjIFeGxdU-129" value="" style="endArrow=classic;html=1;rounded=0;fillColor=#000099;strokeColor=#FF0000;" edge="1" parent="1">
          <mxGeometry width="50" height="50" relative="1" as="geometry">
            <mxPoint x="310" y="2860" as="sourcePoint" />
            <mxPoint x="310" y="2930" as="targetPoint" />
          </mxGeometry>
        </mxCell>
        <mxCell id="CrBWPl1Ne-4bjIFeGxdU-130" value="send answer befor 5 second" style="rhombus;whiteSpace=wrap;html=1;fillColor=#000099;strokeColor=#FF0000;" vertex="1" parent="1">
          <mxGeometry x="260" y="2930" width="99" height="100" as="geometry" />
        </mxCell>
        <mxCell id="CrBWPl1Ne-4bjIFeGxdU-131" value="" style="endArrow=classic;html=1;rounded=0;fillColor=#000099;strokeColor=#FF0000;" edge="1" parent="1">
          <mxGeometry width="50" height="50" relative="1" as="geometry">
            <mxPoint x="260" y="2979.5" as="sourcePoint" />
            <mxPoint x="180" y="3160" as="targetPoint" />
            <Array as="points">
              <mxPoint x="180" y="2980" />
            </Array>
          </mxGeometry>
        </mxCell>
        <mxCell id="CrBWPl1Ne-4bjIFeGxdU-132" value="no" style="edgeLabel;html=1;align=center;verticalAlign=middle;resizable=0;points=[];fillColor=#000099;strokeColor=#FF0000;" vertex="1" connectable="0" parent="CrBWPl1Ne-4bjIFeGxdU-131">
          <mxGeometry x="0.1238" y="-2" relative="1" as="geometry">
            <mxPoint y="7" as="offset" />
          </mxGeometry>
        </mxCell>
        <mxCell id="CrBWPl1Ne-4bjIFeGxdU-133" value="" style="endArrow=classic;html=1;rounded=0;entryX=0.5;entryY=0;entryDx=0;entryDy=0;fillColor=#000099;strokeColor=#FF0000;" edge="1" parent="1" target="CrBWPl1Ne-4bjIFeGxdU-135">
          <mxGeometry width="50" height="50" relative="1" as="geometry">
            <mxPoint x="359" y="2980" as="sourcePoint" />
            <mxPoint x="280" y="3110" as="targetPoint" />
            <Array as="points">
              <mxPoint x="479" y="2980" />
              <mxPoint x="480" y="3110" />
              <mxPoint x="340" y="3110" />
            </Array>
          </mxGeometry>
        </mxCell>
        <mxCell id="CrBWPl1Ne-4bjIFeGxdU-134" value="yes" style="edgeLabel;html=1;align=center;verticalAlign=middle;resizable=0;points=[];fillColor=#000099;strokeColor=#FF0000;" vertex="1" connectable="0" parent="CrBWPl1Ne-4bjIFeGxdU-133">
          <mxGeometry x="-0.3429" relative="1" as="geometry">
            <mxPoint as="offset" />
          </mxGeometry>
        </mxCell>
        <mxCell id="CrBWPl1Ne-4bjIFeGxdU-135" value="correct answer" style="rhombus;whiteSpace=wrap;html=1;fillColor=#000099;strokeColor=#FF0000;" vertex="1" parent="1">
          <mxGeometry x="300" y="3130" width="80" height="80" as="geometry" />
        </mxCell>
        <mxCell id="CrBWPl1Ne-4bjIFeGxdU-136" value="" style="endArrow=classic;html=1;rounded=0;entryX=0.5;entryY=0;entryDx=0;entryDy=0;fillColor=#000099;strokeColor=#FF0000;" edge="1" parent="1" target="CrBWPl1Ne-4bjIFeGxdU-144">
          <mxGeometry width="50" height="50" relative="1" as="geometry">
            <mxPoint x="380" y="3170" as="sourcePoint" />
            <mxPoint x="580" y="3170" as="targetPoint" />
            <Array as="points">
              <mxPoint x="545" y="3170" />
            </Array>
          </mxGeometry>
        </mxCell>
        <mxCell id="CrBWPl1Ne-4bjIFeGxdU-137" value="yes" style="edgeLabel;html=1;align=center;verticalAlign=middle;resizable=0;points=[];fillColor=#000099;strokeColor=#FF0000;" vertex="1" connectable="0" parent="CrBWPl1Ne-4bjIFeGxdU-136">
          <mxGeometry x="-0.1556" relative="1" as="geometry">
            <mxPoint as="offset" />
          </mxGeometry>
        </mxCell>
        <mxCell id="CrBWPl1Ne-4bjIFeGxdU-138" value="" style="endArrow=classic;html=1;rounded=0;entryX=1;entryY=0.5;entryDx=0;entryDy=0;fillColor=#000099;strokeColor=#FF0000;" edge="1" parent="1" target="CrBWPl1Ne-4bjIFeGxdU-141">
          <mxGeometry width="50" height="50" relative="1" as="geometry">
            <mxPoint x="300" y="3169.71" as="sourcePoint" />
            <mxPoint x="230" y="3169.71" as="targetPoint" />
          </mxGeometry>
        </mxCell>
        <mxCell id="CrBWPl1Ne-4bjIFeGxdU-139" value="no" style="edgeLabel;html=1;align=center;verticalAlign=middle;resizable=0;points=[];fillColor=#000099;strokeColor=#FF0000;" vertex="1" connectable="0" parent="CrBWPl1Ne-4bjIFeGxdU-138">
          <mxGeometry x="-0.0939" y="1" relative="1" as="geometry">
            <mxPoint as="offset" />
          </mxGeometry>
        </mxCell>
        <mxCell id="CrBWPl1Ne-4bjIFeGxdU-141" value="" style="ellipse;whiteSpace=wrap;html=1;aspect=fixed;fillColor=#000099;strokeColor=#FF0000;" vertex="1" parent="1">
          <mxGeometry x="170" y="3160" width="20" height="20" as="geometry" />
        </mxCell>
        <mxCell id="CrBWPl1Ne-4bjIFeGxdU-142" value="" style="endArrow=classic;html=1;rounded=0;fillColor=#000099;strokeColor=#FF0000;" edge="1" parent="1">
          <mxGeometry width="50" height="50" relative="1" as="geometry">
            <mxPoint x="179.58" y="3180" as="sourcePoint" />
            <mxPoint x="179.58" y="3230" as="targetPoint" />
          </mxGeometry>
        </mxCell>
        <mxCell id="CrBWPl1Ne-4bjIFeGxdU-143" value="show result fals" style="rounded=0;whiteSpace=wrap;html=1;fillColor=#000099;strokeColor=#FF0000;" vertex="1" parent="1">
          <mxGeometry x="120" y="3230" width="120" height="40" as="geometry" />
        </mxCell>
        <mxCell id="CrBWPl1Ne-4bjIFeGxdU-144" value="show result true" style="rounded=0;whiteSpace=wrap;html=1;fillColor=#000099;strokeColor=#FF0000;" vertex="1" parent="1">
          <mxGeometry x="485" y="3230" width="120" height="40" as="geometry" />
        </mxCell>
        <mxCell id="CrBWPl1Ne-4bjIFeGxdU-145" value="" style="endArrow=classic;html=1;rounded=0;fillColor=#000099;strokeColor=#FF0000;" edge="1" parent="1">
          <mxGeometry width="50" height="50" relative="1" as="geometry">
            <mxPoint x="179.57999999999998" y="3270" as="sourcePoint" />
            <mxPoint x="350" y="3420" as="targetPoint" />
            <Array as="points">
              <mxPoint x="180" y="3420" />
            </Array>
          </mxGeometry>
        </mxCell>
        <mxCell id="CrBWPl1Ne-4bjIFeGxdU-146" value="" style="endArrow=classic;html=1;rounded=0;exitX=0.5;exitY=1;exitDx=0;exitDy=0;entryX=1;entryY=0.5;entryDx=0;entryDy=0;fillColor=#000099;strokeColor=#FF0000;" edge="1" parent="1" source="CrBWPl1Ne-4bjIFeGxdU-144" target="CrBWPl1Ne-4bjIFeGxdU-147">
          <mxGeometry width="50" height="50" relative="1" as="geometry">
            <mxPoint x="530" y="3400" as="sourcePoint" />
            <mxPoint x="380" y="3420" as="targetPoint" />
            <Array as="points">
              <mxPoint x="545" y="3420" />
            </Array>
          </mxGeometry>
        </mxCell>
        <mxCell id="CrBWPl1Ne-4bjIFeGxdU-147" value="" style="ellipse;whiteSpace=wrap;html=1;aspect=fixed;fillColor=#000099;strokeColor=#FF0000;" vertex="1" parent="1">
          <mxGeometry x="351" y="3410" width="20" height="20" as="geometry" />
        </mxCell>
        <mxCell id="CrBWPl1Ne-4bjIFeGxdU-149" value="exite from exam&amp;nbsp;" style="rhombus;whiteSpace=wrap;html=1;fillColor=#000099;strokeColor=#FF0000;" vertex="1" parent="1">
          <mxGeometry x="321" y="3510" width="80" height="80" as="geometry" />
        </mxCell>
        <mxCell id="CrBWPl1Ne-4bjIFeGxdU-150" value="" style="endArrow=classic;html=1;rounded=0;entryX=0.5;entryY=0;entryDx=0;entryDy=0;fillColor=#000099;strokeColor=#FF0000;" edge="1" parent="1" target="CrBWPl1Ne-4bjIFeGxdU-149">
          <mxGeometry width="50" height="50" relative="1" as="geometry">
            <mxPoint x="360" y="3430" as="sourcePoint" />
            <mxPoint x="410" y="3460" as="targetPoint" />
          </mxGeometry>
        </mxCell>
        <mxCell id="CrBWPl1Ne-4bjIFeGxdU-152" value="" style="endArrow=classic;html=1;rounded=0;fillColor=#000099;strokeColor=#FF0000;" edge="1" parent="1">
          <mxGeometry width="50" height="50" relative="1" as="geometry">
            <mxPoint x="321" y="3549.58" as="sourcePoint" />
            <mxPoint x="310" y="2720" as="targetPoint" />
            <Array as="points">
              <mxPoint x="-30" y="3550" />
              <mxPoint x="-30" y="2720" />
            </Array>
          </mxGeometry>
        </mxCell>
        <mxCell id="CrBWPl1Ne-4bjIFeGxdU-154" value="no" style="edgeLabel;html=1;align=center;verticalAlign=middle;resizable=0;points=[];fillColor=#000099;strokeColor=#FF0000;" vertex="1" connectable="0" parent="CrBWPl1Ne-4bjIFeGxdU-152">
          <mxGeometry x="0.2286" y="-3" relative="1" as="geometry">
            <mxPoint x="167" y="583" as="offset" />
          </mxGeometry>
        </mxCell>
        <mxCell id="CrBWPl1Ne-4bjIFeGxdU-156" value="" style="endArrow=classic;html=1;rounded=0;fillColor=#000099;strokeColor=#FF0000;" edge="1" parent="1">
          <mxGeometry width="50" height="50" relative="1" as="geometry">
            <mxPoint x="400" y="3550" as="sourcePoint" />
            <mxPoint x="419" y="400" as="targetPoint" />
            <Array as="points">
              <mxPoint x="990" y="3550" />
              <mxPoint x="1000" y="400" />
            </Array>
          </mxGeometry>
        </mxCell>
        <mxCell id="CrBWPl1Ne-4bjIFeGxdU-158" value="yes" style="edgeLabel;html=1;align=center;verticalAlign=middle;resizable=0;points=[];fillColor=#000099;strokeColor=#FF0000;" vertex="1" connectable="0" parent="CrBWPl1Ne-4bjIFeGxdU-156">
          <mxGeometry x="-0.9026" y="-4" relative="1" as="geometry">
            <mxPoint as="offset" />
          </mxGeometry>
        </mxCell>
        <mxCell id="CrBWPl1Ne-4bjIFeGxdU-159" value="" style="endArrow=classic;html=1;rounded=0;exitX=0.5;exitY=1;exitDx=0;exitDy=0;fillColor=#000099;strokeColor=#FF0000;" edge="1" parent="1" source="CrBWPl1Ne-4bjIFeGxdU-25">
          <mxGeometry width="50" height="50" relative="1" as="geometry">
            <mxPoint x="-190" y="990" as="sourcePoint" />
            <mxPoint x="310" y="2660" as="targetPoint" />
            <Array as="points">
              <mxPoint x="-210" y="1780" />
              <mxPoint x="-570" y="1780" />
              <mxPoint x="-570" y="2660" />
            </Array>
          </mxGeometry>
        </mxCell>
        <mxCell id="CrBWPl1Ne-4bjIFeGxdU-160" value="" style="endArrow=classic;html=1;rounded=0;exitX=0.5;exitY=1;exitDx=0;exitDy=0;strokeColor=#FF0000;fillColor=#000099;" edge="1" parent="1" source="B7nKy264djmHCqe6Lyla-59">
          <mxGeometry width="50" height="50" relative="1" as="geometry">
            <mxPoint x="650" y="760" as="sourcePoint" />
            <mxPoint x="640" y="730" as="targetPoint" />
          </mxGeometry>
        </mxCell>
        <mxCell id="CrBWPl1Ne-4bjIFeGxdU-161" value="" style="ellipse;whiteSpace=wrap;html=1;aspect=fixed;fillColor=#000099;strokeColor=#FF0000;" vertex="1" parent="1">
          <mxGeometry x="630" y="730" width="20" height="20" as="geometry" />
        </mxCell>
        <mxCell id="CrBWPl1Ne-4bjIFeGxdU-162" value="" style="endArrow=classic;html=1;rounded=0;strokeColor=#FF0000;fillColor=#000099;" edge="1" parent="1">
          <mxGeometry width="50" height="50" relative="1" as="geometry">
            <mxPoint x="650" y="740" as="sourcePoint" />
            <mxPoint x="750" y="800" as="targetPoint" />
            <Array as="points">
              <mxPoint x="750" y="740" />
            </Array>
          </mxGeometry>
        </mxCell>
        <mxCell id="CrBWPl1Ne-4bjIFeGxdU-163" value="" style="endArrow=classic;html=1;rounded=0;exitX=0;exitY=0.5;exitDx=0;exitDy=0;strokeColor=#FF0000;fillColor=#000099;" edge="1" parent="1" source="CrBWPl1Ne-4bjIFeGxdU-161">
          <mxGeometry width="50" height="50" relative="1" as="geometry">
            <mxPoint x="450" y="760" as="sourcePoint" />
            <mxPoint x="540" y="800" as="targetPoint" />
            <Array as="points">
              <mxPoint x="540" y="740" />
            </Array>
          </mxGeometry>
        </mxCell>
        <mxCell id="CrBWPl1Ne-4bjIFeGxdU-164" value="" style="endArrow=classic;html=1;rounded=0;strokeColor=#FF0000;fillColor=#000099;" edge="1" parent="1">
          <mxGeometry width="50" height="50" relative="1" as="geometry">
            <mxPoint x="639.85" y="750" as="sourcePoint" />
            <mxPoint x="640" y="800" as="targetPoint" />
          </mxGeometry>
        </mxCell>
        <mxCell id="CrBWPl1Ne-4bjIFeGxdU-165" value="delet folder" style="rounded=0;whiteSpace=wrap;html=1;strokeColor=#FF0000;fillColor=#000099;" vertex="1" parent="1">
          <mxGeometry x="505" y="799.5" width="70" height="29" as="geometry" />
        </mxCell>
        <mxCell id="CrBWPl1Ne-4bjIFeGxdU-166" value="edite name folder" style="rounded=0;whiteSpace=wrap;html=1;strokeColor=#FF0000;fillColor=#000099;" vertex="1" parent="1">
          <mxGeometry x="715" y="799.5" width="70" height="29" as="geometry" />
        </mxCell>
        <mxCell id="CrBWPl1Ne-4bjIFeGxdU-167" value="show words" style="rounded=0;whiteSpace=wrap;html=1;strokeColor=#FF0000;fillColor=#000099;" vertex="1" parent="1">
          <mxGeometry x="605" y="799.5" width="70" height="29" as="geometry" />
        </mxCell>
        <mxCell id="CrBWPl1Ne-4bjIFeGxdU-169" value="" style="endArrow=classic;html=1;rounded=0;entryX=0.5;entryY=0;entryDx=0;entryDy=0;strokeColor=#FF0000;fillColor=#000099;" edge="1" parent="1" target="CrBWPl1Ne-4bjIFeGxdU-171">
          <mxGeometry width="50" height="50" relative="1" as="geometry">
            <mxPoint x="540" y="740" as="sourcePoint" />
            <mxPoint x="390" y="800" as="targetPoint" />
            <Array as="points">
              <mxPoint x="410" y="740" />
            </Array>
          </mxGeometry>
        </mxCell>
        <mxCell id="CrBWPl1Ne-4bjIFeGxdU-171" value="edite word" style="rounded=0;whiteSpace=wrap;html=1;strokeColor=#FF0000;fillColor=#000099;" vertex="1" parent="1">
          <mxGeometry x="375" y="799.5" width="70" height="29" as="geometry" />
        </mxCell>
        <mxCell id="CrBWPl1Ne-4bjIFeGxdU-172" value="" style="endArrow=classic;html=1;rounded=0;strokeColor=#FF0000;fillColor=#000099;" edge="1" parent="1">
          <mxGeometry width="50" height="50" relative="1" as="geometry">
            <mxPoint x="750" y="740" as="sourcePoint" />
            <mxPoint x="850" y="800" as="targetPoint" />
            <Array as="points">
              <mxPoint x="850" y="740" />
            </Array>
          </mxGeometry>
        </mxCell>
        <mxCell id="CrBWPl1Ne-4bjIFeGxdU-173" value="select word&amp;nbsp;" style="rounded=0;whiteSpace=wrap;html=1;strokeColor=#FF0000;fillColor=#000099;" vertex="1" parent="1">
          <mxGeometry x="820" y="799.5" width="70" height="29" as="geometry" />
        </mxCell>
        <mxCell id="CrBWPl1Ne-4bjIFeGxdU-174" value="" style="endArrow=classic;html=1;rounded=0;strokeColor=#FF0000;fillColor=#000099;" edge="1" parent="1">
          <mxGeometry width="50" height="50" relative="1" as="geometry">
            <mxPoint x="850" y="740" as="sourcePoint" />
            <mxPoint x="950" y="800" as="targetPoint" />
            <Array as="points">
              <mxPoint x="950" y="740" />
            </Array>
          </mxGeometry>
        </mxCell>
        <mxCell id="CrBWPl1Ne-4bjIFeGxdU-175" value="unselect word&amp;nbsp;" style="rounded=0;whiteSpace=wrap;html=1;strokeColor=#FF0000;fillColor=#000099;" vertex="1" parent="1">
          <mxGeometry x="920" y="799.5" width="70" height="29" as="geometry" />
        </mxCell>
        <mxCell id="CrBWPl1Ne-4bjIFeGxdU-176" value="" style="endArrow=classic;html=1;rounded=0;entryX=0.5;entryY=0.172;entryDx=0;entryDy=0;entryPerimeter=0;strokeColor=#FF0000;fillColor=#000099;" edge="1" parent="1">
          <mxGeometry width="50" height="50" relative="1" as="geometry">
            <mxPoint x="410" y="740" as="sourcePoint" />
            <mxPoint x="280" y="794.988" as="targetPoint" />
            <Array as="points">
              <mxPoint x="280" y="740" />
            </Array>
          </mxGeometry>
        </mxCell>
        <mxCell id="CrBWPl1Ne-4bjIFeGxdU-177" value="delet word" style="rounded=0;whiteSpace=wrap;html=1;strokeColor=#FF0000;fillColor=#000099;" vertex="1" parent="1">
          <mxGeometry x="245" y="795" width="70" height="29" as="geometry" />
        </mxCell>
        <mxCell id="CrBWPl1Ne-4bjIFeGxdU-179" value="" style="endArrow=classic;html=1;rounded=0;strokeColor=#FF0000;fillColor=#000099;" edge="1" parent="1">
          <mxGeometry width="50" height="50" relative="1" as="geometry">
            <mxPoint x="1199.47" y="680" as="sourcePoint" />
            <mxPoint x="1199.47" y="770" as="targetPoint" />
          </mxGeometry>
        </mxCell>
        <mxCell id="CrBWPl1Ne-4bjIFeGxdU-180" value="name folder" style="rounded=0;whiteSpace=wrap;html=1;strokeColor=#FF0000;fillColor=#000099;" vertex="1" parent="1">
          <mxGeometry x="1140" y="768.5" width="120" height="60" as="geometry" />
        </mxCell>
        <mxCell id="CrBWPl1Ne-4bjIFeGxdU-181" value="save and create" style="rounded=0;whiteSpace=wrap;html=1;strokeColor=#FF0000;fillColor=#000099;" vertex="1" parent="1">
          <mxGeometry x="1140" y="920" width="120" height="60" as="geometry" />
        </mxCell>
        <mxCell id="CrBWPl1Ne-4bjIFeGxdU-182" value="" style="endArrow=classic;html=1;rounded=0;entryX=0.5;entryY=0;entryDx=0;entryDy=0;strokeColor=#FF0000;fillColor=#000099;" edge="1" parent="1" target="CrBWPl1Ne-4bjIFeGxdU-181">
          <mxGeometry width="50" height="50" relative="1" as="geometry">
            <mxPoint x="1200" y="830" as="sourcePoint" />
            <mxPoint x="1240" y="830" as="targetPoint" />
          </mxGeometry>
        </mxCell>
        <mxCell id="CrBWPl1Ne-4bjIFeGxdU-183" value="" style="endArrow=classic;html=1;rounded=0;fillColor=#000099;strokeColor=#FF0000;" edge="1" parent="1">
          <mxGeometry width="50" height="50" relative="1" as="geometry">
            <mxPoint x="1640" y="559.33" as="sourcePoint" />
            <mxPoint x="2330" y="620" as="targetPoint" />
            <Array as="points">
              <mxPoint x="2330" y="559" />
            </Array>
          </mxGeometry>
        </mxCell>
        <mxCell id="CrBWPl1Ne-4bjIFeGxdU-184" value="search&lt;div&gt;&lt;br&gt;&lt;/div&gt;" style="rounded=0;whiteSpace=wrap;html=1;fillColor=#000099;strokeColor=#FF0000;" vertex="1" parent="1">
          <mxGeometry x="2270" y="620" width="120" height="60" as="geometry" />
        </mxCell>
        <mxCell id="CrBWPl1Ne-4bjIFeGxdU-189" value="edite word" style="rounded=0;whiteSpace=wrap;html=1;strokeColor=#FF0000;fillColor=#000099;" vertex="1" parent="1">
          <mxGeometry x="2360" y="819.5" width="70" height="29" as="geometry" />
        </mxCell>
        <mxCell id="CrBWPl1Ne-4bjIFeGxdU-190" value="" style="endArrow=classic;html=1;rounded=0;entryX=0.5;entryY=0.172;entryDx=0;entryDy=0;entryPerimeter=0;strokeColor=#FF0000;fillColor=#000099;" edge="1" parent="1">
          <mxGeometry width="50" height="50" relative="1" as="geometry">
            <mxPoint x="2395" y="760" as="sourcePoint" />
            <mxPoint x="2265" y="814.988" as="targetPoint" />
            <Array as="points">
              <mxPoint x="2265" y="760" />
            </Array>
          </mxGeometry>
        </mxCell>
        <mxCell id="CrBWPl1Ne-4bjIFeGxdU-191" value="delet word" style="rounded=0;whiteSpace=wrap;html=1;strokeColor=#FF0000;fillColor=#000099;" vertex="1" parent="1">
          <mxGeometry x="2230" y="815" width="70" height="29" as="geometry" />
        </mxCell>
        <mxCell id="CrBWPl1Ne-4bjIFeGxdU-192" value="" style="endArrow=classic;html=1;rounded=0;fillColor=#000099;strokeColor=#FF0000;" edge="1" parent="1">
          <mxGeometry width="50" height="50" relative="1" as="geometry">
            <mxPoint x="2394.33" y="759.5" as="sourcePoint" />
            <mxPoint x="2394" y="821" as="targetPoint" />
          </mxGeometry>
        </mxCell>
        <mxCell id="CrBWPl1Ne-4bjIFeGxdU-193" value="" style="endArrow=classic;html=1;rounded=0;exitX=0.5;exitY=1;exitDx=0;exitDy=0;fillColor=#000099;strokeColor=#FF0000;" edge="1" parent="1" source="CrBWPl1Ne-4bjIFeGxdU-184">
          <mxGeometry width="50" height="50" relative="1" as="geometry">
            <mxPoint x="2310" y="750" as="sourcePoint" />
            <mxPoint x="2330" y="760" as="targetPoint" />
          </mxGeometry>
        </mxCell>
        <mxCell id="CrBWPl1Ne-4bjIFeGxdU-194" value="" style="endArrow=classic;html=1;rounded=0;fillColor=#000099;strokeColor=#FF0000;" edge="1" parent="1">
          <mxGeometry width="50" height="50" relative="1" as="geometry">
            <mxPoint x="2329.85" y="920" as="sourcePoint" />
            <mxPoint x="420" y="380" as="targetPoint" />
            <Array as="points">
              <mxPoint x="2330" y="970" />
              <mxPoint x="2500" y="970" />
              <mxPoint x="2500" y="380" />
            </Array>
          </mxGeometry>
        </mxCell>
        <mxCell id="CrBWPl1Ne-4bjIFeGxdU-195" value="" style="ellipse;whiteSpace=wrap;html=1;aspect=fixed;fillColor=#000099;strokeColor=#FF0000;" vertex="1" parent="1">
          <mxGeometry x="2320" y="900" width="20" height="20" as="geometry" />
        </mxCell>
        <mxCell id="CrBWPl1Ne-4bjIFeGxdU-196" value="" style="endArrow=classic;html=1;rounded=0;entryX=1;entryY=0.5;entryDx=0;entryDy=0;entryPerimeter=0;fillColor=#000099;strokeColor=#FF0000;" edge="1" parent="1" target="CrBWPl1Ne-4bjIFeGxdU-195">
          <mxGeometry width="50" height="50" relative="1" as="geometry">
            <mxPoint x="2392" y="850" as="sourcePoint" />
            <mxPoint x="2341.9999999999336" y="910" as="targetPoint" />
            <Array as="points">
              <mxPoint x="2392" y="910" />
            </Array>
          </mxGeometry>
        </mxCell>
        <mxCell id="CrBWPl1Ne-4bjIFeGxdU-197" value="" style="endArrow=classic;html=1;rounded=0;entryX=0;entryY=0.5;entryDx=0;entryDy=0;fillColor=#000099;strokeColor=#FF0000;" edge="1" parent="1" target="CrBWPl1Ne-4bjIFeGxdU-195">
          <mxGeometry width="50" height="50" relative="1" as="geometry">
            <mxPoint x="2264.85" y="844" as="sourcePoint" />
            <mxPoint x="2264.85" y="924" as="targetPoint" />
            <Array as="points">
              <mxPoint x="2265" y="910" />
            </Array>
          </mxGeometry>
        </mxCell>
        <mxCell id="CrBWPl1Ne-4bjIFeGxdU-198" value="" style="ellipse;whiteSpace=wrap;html=1;aspect=fixed;fillColor=#000099;strokeColor=#FF0000;" vertex="1" parent="1">
          <mxGeometry x="620" y="910" width="20" height="20" as="geometry" />
        </mxCell>
        <mxCell id="CrBWPl1Ne-4bjIFeGxdU-199" value="" style="endArrow=classic;html=1;rounded=0;entryX=1;entryY=0.5;entryDx=0;entryDy=0;strokeColor=#FF0000;fillColor=#000099;" edge="1" parent="1" target="CrBWPl1Ne-4bjIFeGxdU-198">
          <mxGeometry width="50" height="50" relative="1" as="geometry">
            <mxPoint x="954.76" y="830" as="sourcePoint" />
            <mxPoint x="955" y="970" as="targetPoint" />
            <Array as="points">
              <mxPoint x="955" y="920" />
            </Array>
          </mxGeometry>
        </mxCell>
        <mxCell id="CrBWPl1Ne-4bjIFeGxdU-200" value="" style="endArrow=classic;html=1;rounded=0;entryX=1;entryY=0;entryDx=0;entryDy=0;strokeColor=#FF0000;fillColor=#000099;" edge="1" parent="1" target="CrBWPl1Ne-4bjIFeGxdU-198">
          <mxGeometry width="50" height="50" relative="1" as="geometry">
            <mxPoint x="637" y="830" as="sourcePoint" />
            <mxPoint x="680" y="850" as="targetPoint" />
          </mxGeometry>
        </mxCell>
        <mxCell id="CrBWPl1Ne-4bjIFeGxdU-201" value="" style="endArrow=classic;html=1;rounded=0;entryX=1;entryY=0;entryDx=0;entryDy=0;exitX=0.5;exitY=1;exitDx=0;exitDy=0;strokeColor=#FF0000;fillColor=#000099;" edge="1" parent="1" source="CrBWPl1Ne-4bjIFeGxdU-166" target="CrBWPl1Ne-4bjIFeGxdU-198">
          <mxGeometry width="50" height="50" relative="1" as="geometry">
            <mxPoint x="690" y="850" as="sourcePoint" />
            <mxPoint x="740" y="850" as="targetPoint" />
            <Array as="points">
              <mxPoint x="750" y="913" />
            </Array>
          </mxGeometry>
        </mxCell>
        <mxCell id="CrBWPl1Ne-4bjIFeGxdU-202" value="" style="endArrow=classic;html=1;rounded=0;exitX=0.402;exitY=0.917;exitDx=0;exitDy=0;exitPerimeter=0;entryX=1;entryY=1;entryDx=0;entryDy=0;strokeColor=#FF0000;fillColor=#000099;" edge="1" parent="1" target="CrBWPl1Ne-4bjIFeGxdU-198">
          <mxGeometry width="50" height="50" relative="1" as="geometry">
            <mxPoint x="850.1400000000003" y="828.0929999999998" as="sourcePoint" />
            <mxPoint x="842" y="962" as="targetPoint" />
            <Array as="points">
              <mxPoint x="850" y="927" />
            </Array>
          </mxGeometry>
        </mxCell>
        <mxCell id="CrBWPl1Ne-4bjIFeGxdU-203" value="" style="endArrow=classic;html=1;rounded=0;entryX=0.5;entryY=0;entryDx=0;entryDy=0;strokeColor=#FF0000;fillColor=#000099;" edge="1" parent="1">
          <mxGeometry width="50" height="50" relative="1" as="geometry">
            <mxPoint x="530" y="830" as="sourcePoint" />
            <mxPoint x="621.45" y="913" as="targetPoint" />
            <Array as="points">
              <mxPoint x="530" y="913" />
            </Array>
          </mxGeometry>
        </mxCell>
        <mxCell id="CrBWPl1Ne-4bjIFeGxdU-204" value="" style="endArrow=classic;html=1;rounded=0;exitX=0.363;exitY=0.994;exitDx=0;exitDy=0;exitPerimeter=0;strokeColor=#FF0000;fillColor=#000099;" edge="1" parent="1" source="CrBWPl1Ne-4bjIFeGxdU-171">
          <mxGeometry width="50" height="50" relative="1" as="geometry">
            <mxPoint x="390" y="920" as="sourcePoint" />
            <mxPoint x="620" y="920" as="targetPoint" />
            <Array as="points">
              <mxPoint x="400" y="920" />
            </Array>
          </mxGeometry>
        </mxCell>
        <mxCell id="CrBWPl1Ne-4bjIFeGxdU-205" value="" style="endArrow=classic;html=1;rounded=0;entryX=-0.05;entryY=0.861;entryDx=0;entryDy=0;entryPerimeter=0;exitX=0.5;exitY=1;exitDx=0;exitDy=0;strokeColor=#FF0000;fillColor=#000099;" edge="1" parent="1" source="CrBWPl1Ne-4bjIFeGxdU-177">
          <mxGeometry width="50" height="50" relative="1" as="geometry">
            <mxPoint x="270" y="924" as="sourcePoint" />
            <mxPoint x="620" y="923.6099999999998" as="targetPoint" />
            <Array as="points">
              <mxPoint x="280" y="924" />
            </Array>
          </mxGeometry>
        </mxCell>
        <mxCell id="CrBWPl1Ne-4bjIFeGxdU-206" value="" style="endArrow=classic;html=1;rounded=0;exitX=0.5;exitY=1;exitDx=0;exitDy=0;strokeColor=#FF0000;fillColor=#000099;" edge="1" parent="1">
          <mxGeometry width="50" height="50" relative="1" as="geometry">
            <mxPoint x="628" y="930" as="sourcePoint" />
            <mxPoint x="998" y="1070" as="targetPoint" />
            <Array as="points">
              <mxPoint x="628" y="1070" />
            </Array>
          </mxGeometry>
        </mxCell>
        <mxCell id="CrBWPl1Ne-4bjIFeGxdU-207" value="" style="endArrow=classic;html=1;rounded=0;exitX=0.5;exitY=1;exitDx=0;exitDy=0;strokeColor=#FF0000;fillColor=#000099;" edge="1" parent="1" source="CrBWPl1Ne-4bjIFeGxdU-181">
          <mxGeometry width="50" height="50" relative="1" as="geometry">
            <mxPoint x="1240" y="1040" as="sourcePoint" />
            <mxPoint x="1000" y="1040" as="targetPoint" />
            <Array as="points">
              <mxPoint x="1200" y="1040" />
            </Array>
          </mxGeometry>
        </mxCell>
        <mxCell id="CrBWPl1Ne-4bjIFeGxdU-208" value="" style="endArrow=classic;html=1;rounded=0;exitX=0.5;exitY=1;exitDx=0;exitDy=0;strokeColor=#FF0000;fillColor=#000099;" edge="1" parent="1" source="B7nKy264djmHCqe6Lyla-84">
          <mxGeometry width="50" height="50" relative="1" as="geometry">
            <mxPoint x="1740" y="1070" as="sourcePoint" />
            <mxPoint x="1640" y="580" as="targetPoint" />
            <Array as="points">
              <mxPoint x="1740" y="1040" />
              <mxPoint x="1840" y="1040" />
              <mxPoint x="1840" y="580" />
            </Array>
          </mxGeometry>
        </mxCell>
      </root>
    </mxGraphModel>
  </diagram>
</mxfile>
